<?xml version="1.0" encoding="utf-8" standalone="no"?>
<!DOCTYPE svg PUBLIC "-//W3C//DTD SVG 1.1//EN"
  "http://www.w3.org/Graphics/SVG/1.1/DTD/svg11.dtd">
<svg xmlns:xlink="http://www.w3.org/1999/xlink" width="510.949063pt" height="309.50375pt" viewBox="0 0 510.949063 309.50375" xmlns="http://www.w3.org/2000/svg" version="1.1">
 <metadata>
  <rdf:RDF xmlns:dc="http://purl.org/dc/elements/1.1/" xmlns:cc="http://creativecommons.org/ns#" xmlns:rdf="http://www.w3.org/1999/02/22-rdf-syntax-ns#">
   <cc:Work>
    <dc:type rdf:resource="http://purl.org/dc/dcmitype/StillImage"/>
    <dc:date>2026-07-31T10:40:11.946951</dc:date>
    <dc:format>image/svg+xml</dc:format>
    <dc:creator>
     <cc:Agent>
      <dc:title>Matplotlib v3.10.5, https://matplotlib.org/</dc:title>
     </cc:Agent>
    </dc:creator>
   </cc:Work>
  </rdf:RDF>
 </metadata>
 <defs>
  <style type="text/css">*{stroke-linejoin: round; stroke-linecap: butt}</style>
 </defs>
 <g id="figure_1">
  <g id="patch_1">
   <path d="M 0 309.50375
L 510.949063 309.50375
L 510.949063 0
L 0 0
z
" style="fill: #ffffff"/>
  </g>
  <g id="axes_1">
   <g id="patch_2">
    <path d="M 43.239063 272.344375
L 503.749062 272.344375
L 503.749062 22.224375
L 43.239063 22.224375
z
" style="fill: #ffffff"/>
   </g>
   <g id="matplotlib.axis_1">
    <g id="xtick_1">
     <g id="line2d_1">
      <defs>
       <path id="m4c0e607f47" d="M 0 0
L 0 3.5
" style="stroke: #000000; stroke-width: 0.8"/>
      </defs>
      <g>
       <use xlink:href="#m4c0e607f47" x="64.171335" y="272.344375" style="stroke: #000000; stroke-width: 0.8"/>
      </g>
     </g>
     <g id="text_1">
      <!-- 2020 -->
      <g transform="translate(52.052585 286.864687) scale(0.1 -0.1)">
       <defs>
        <path id="NanumGothic-32" d="M 576 -301
Q 506 -301 470 -297
Q 435 -294 419 -278
Q 403 -262 400 -227
Q 397 -192 397 -122
L 403 19
Q 403 102 454 154
L 1510 1318
Q 2688 2592 2688 3251
Q 2688 3635 2432 3891
Q 2182 4141 1811 4141
Q 1293 4141 730 3853
Q 640 3808 627 3891
L 589 4102
Q 570 4211 653 4237
Q 979 4384 1241 4454
Q 1504 4525 1779 4525
Q 2394 4525 2758 4218
Q 3168 3885 3168 3270
Q 3168 3034 3053 2752
Q 2938 2470 2733 2163
Q 2605 1984 2371 1696
Q 2138 1408 1837 1082
Q 1613 838 1392 588
Q 1171 339 947 96
L 3187 96
Q 3277 96 3277 6
L 3277 -211
Q 3277 -301 3187 -301
L 576 -301
z
" transform="scale(0.015625)"/>
        <path id="NanumGothic-30" d="M 3066 2093
Q 3066 4102 1965 4102
Q 864 4102 864 2093
Q 864 77 1965 77
Q 3066 77 3066 2093
z
M 3526 2093
Q 3526 -326 1965 -326
Q 390 -326 390 2093
Q 390 3098 698 3725
Q 1088 4512 1965 4512
Q 2829 4512 3226 3725
Q 3373 3411 3449 3008
Q 3526 2605 3526 2093
z
" transform="scale(0.015625)"/>
       </defs>
       <use xlink:href="#NanumGothic-32"/>
       <use xlink:href="#NanumGothic-30" transform="translate(60.599991 0)"/>
       <use xlink:href="#NanumGothic-32" transform="translate(121.199982 0)"/>
       <use xlink:href="#NanumGothic-30" transform="translate(181.799973 0)"/>
      </g>
     </g>
    </g>
    <g id="xtick_2">
     <g id="line2d_2">
      <g>
       <use xlink:href="#m4c0e607f47" x="147.900426" y="272.344375" style="stroke: #000000; stroke-width: 0.8"/>
      </g>
     </g>
     <g id="text_2">
      <!-- 2021 -->
      <g transform="translate(135.781676 286.864687) scale(0.1 -0.1)">
       <defs>
        <path id="NanumGothic-31" d="M 2362 -211
Q 2362 -301 2272 -301
L 2010 -301
Q 1920 -301 1920 -211
L 1920 3949
Q 1722 3782 1549 3635
Q 1376 3488 1184 3322
Q 1114 3264 1056 3334
L 928 3488
Q 909 3520 909 3555
Q 909 3590 941 3616
L 1933 4448
Q 1958 4474 2010 4474
L 2182 4474
Q 2317 4474 2339 4451
Q 2362 4429 2362 4294
L 2362 -211
z
" transform="scale(0.015625)"/>
       </defs>
       <use xlink:href="#NanumGothic-32"/>
       <use xlink:href="#NanumGothic-30" transform="translate(60.599991 0)"/>
       <use xlink:href="#NanumGothic-32" transform="translate(121.199982 0)"/>
       <use xlink:href="#NanumGothic-31" transform="translate(181.799973 0)"/>
      </g>
     </g>
    </g>
    <g id="xtick_3">
     <g id="line2d_3">
      <g>
       <use xlink:href="#m4c0e607f47" x="231.629517" y="272.344375" style="stroke: #000000; stroke-width: 0.8"/>
      </g>
     </g>
     <g id="text_3">
      <!-- 2022 -->
      <g transform="translate(219.510767 286.864687) scale(0.1 -0.1)">
       <use xlink:href="#NanumGothic-32"/>
       <use xlink:href="#NanumGothic-30" transform="translate(60.599991 0)"/>
       <use xlink:href="#NanumGothic-32" transform="translate(121.199982 0)"/>
       <use xlink:href="#NanumGothic-32" transform="translate(181.799973 0)"/>
      </g>
     </g>
    </g>
    <g id="xtick_4">
     <g id="line2d_4">
      <g>
       <use xlink:href="#m4c0e607f47" x="315.358608" y="272.344375" style="stroke: #000000; stroke-width: 0.8"/>
      </g>
     </g>
     <g id="text_4">
      <!-- 2023 -->
      <g transform="translate(303.239858 286.864687) scale(0.1 -0.1)">
       <defs>
        <path id="NanumGothic-33" d="M 493 -192
Q 397 -166 410 -45
L 435 205
Q 448 282 538 243
Q 806 134 1046 89
Q 1286 45 1606 38
Q 2112 32 2458 294
Q 2861 563 2861 1082
Q 2861 1990 1498 1990
L 1165 1990
Q 1082 1990 1082 2061
L 1082 2298
Q 1082 2381 1165 2381
L 1197 2381
Q 1882 2381 2266 2528
Q 2848 2752 2848 3334
Q 2848 3520 2749 3677
Q 2650 3834 2483 3942
Q 2330 4032 2138 4083
Q 1946 4134 1734 4134
Q 1517 4134 1254 4076
Q 992 4019 749 3923
Q 666 3891 653 3974
L 627 4211
Q 608 4301 710 4339
Q 998 4435 1248 4480
Q 1498 4525 1779 4525
Q 2426 4525 2835 4250
Q 3302 3936 3302 3334
Q 3302 2906 2995 2592
Q 2739 2317 2330 2189
Q 2534 2163 2710 2080
Q 2886 1997 3014 1850
Q 3162 1690 3238 1488
Q 3315 1286 3315 1043
Q 3315 723 3184 464
Q 3053 205 2810 19
Q 2573 -154 2265 -253
Q 1958 -352 1581 -346
Q 1242 -339 995 -307
Q 749 -275 493 -192
z
" transform="scale(0.015625)"/>
       </defs>
       <use xlink:href="#NanumGothic-32"/>
       <use xlink:href="#NanumGothic-30" transform="translate(60.599991 0)"/>
       <use xlink:href="#NanumGothic-32" transform="translate(121.199982 0)"/>
       <use xlink:href="#NanumGothic-33" transform="translate(181.799973 0)"/>
      </g>
     </g>
    </g>
    <g id="xtick_5">
     <g id="line2d_5">
      <g>
       <use xlink:href="#m4c0e607f47" x="399.087699" y="272.344375" style="stroke: #000000; stroke-width: 0.8"/>
      </g>
     </g>
     <g id="text_5">
      <!-- 2024 -->
      <g transform="translate(386.968949 286.864687) scale(0.1 -0.1)">
       <defs>
        <path id="NanumGothic-34" d="M 2509 1216
L 2509 4070
Q 2035 3354 1568 2643
Q 1101 1933 621 1216
L 2509 1216
z
M 2944 -211
Q 2944 -301 2854 -301
L 2598 -301
Q 2509 -301 2509 -211
L 2509 826
L 397 826
Q 262 826 240 848
Q 218 870 218 1005
L 218 1203
Q 218 1261 224 1280
Q 230 1299 262 1350
L 2304 4397
Q 2342 4454 2358 4464
Q 2374 4474 2445 4474
L 2765 4474
Q 2899 4474 2921 4451
Q 2944 4429 2944 4294
L 2944 1216
L 3578 1216
Q 3667 1216 3667 1126
L 3667 915
Q 3667 826 3578 826
L 2944 826
L 2944 -211
z
" transform="scale(0.015625)"/>
       </defs>
       <use xlink:href="#NanumGothic-32"/>
       <use xlink:href="#NanumGothic-30" transform="translate(60.599991 0)"/>
       <use xlink:href="#NanumGothic-32" transform="translate(121.199982 0)"/>
       <use xlink:href="#NanumGothic-34" transform="translate(181.799973 0)"/>
      </g>
     </g>
    </g>
    <g id="xtick_6">
     <g id="line2d_6">
      <g>
       <use xlink:href="#m4c0e607f47" x="482.81679" y="272.344375" style="stroke: #000000; stroke-width: 0.8"/>
      </g>
     </g>
     <g id="text_6">
      <!-- 2025 -->
      <g transform="translate(470.69804 286.864687) scale(0.1 -0.1)">
       <defs>
        <path id="NanumGothic-35" d="M 736 -205
Q 646 -173 646 -90
L 646 179
Q 646 288 736 243
Q 966 134 1187 89
Q 1408 45 1670 45
Q 2234 45 2586 320
Q 2970 614 2970 1165
Q 2970 2246 1734 2246
Q 1491 2246 1296 2220
Q 1101 2195 864 2131
Q 794 2112 749 2147
Q 704 2182 704 2253
L 742 4294
Q 742 4429 764 4451
Q 787 4474 922 4474
L 3110 4474
Q 3200 4474 3200 4384
L 3200 4173
Q 3200 4083 3110 4083
L 1178 4083
Q 1171 3680 1161 3296
Q 1152 2912 1146 2509
Q 1459 2630 1907 2630
Q 2579 2630 2995 2266
Q 3411 1888 3411 1254
Q 3411 480 2931 58
Q 2470 -346 1670 -346
Q 1382 -346 1171 -314
Q 960 -282 736 -205
z
" transform="scale(0.015625)"/>
       </defs>
       <use xlink:href="#NanumGothic-32"/>
       <use xlink:href="#NanumGothic-30" transform="translate(60.599991 0)"/>
       <use xlink:href="#NanumGothic-32" transform="translate(121.199982 0)"/>
       <use xlink:href="#NanumGothic-35" transform="translate(181.799973 0)"/>
      </g>
     </g>
    </g>
    <g id="text_7">
     <!-- 보고연도 -->
     <g transform="translate(254.694062 300.344375) scale(0.1 -0.1)">
      <defs>
       <path id="NanumGothic-bcf4" d="M 3213 1818
L 3213 499
L 5728 499
Q 5760 499 5792 476
Q 5824 454 5824 416
L 5824 198
Q 5824 166 5792 140
Q 5760 115 5728 115
L 288 115
Q 250 115 221 140
Q 192 166 192 198
L 192 416
Q 192 454 221 476
Q 250 499 288 499
L 2771 499
L 2771 1818
L 1498 1818
Q 1344 1818 1251 1837
Q 1158 1856 1107 1910
Q 1056 1965 1037 2051
Q 1018 2138 1018 2272
L 1018 4672
Q 1018 4704 1043 4726
Q 1069 4749 1101 4749
L 1376 4749
Q 1408 4749 1430 4723
Q 1453 4698 1453 4672
L 1453 3654
L 4531 3654
L 4531 4666
Q 4531 4698 4553 4723
Q 4576 4749 4608 4749
L 4883 4749
Q 4915 4749 4940 4726
Q 4966 4704 4966 4672
L 4966 2227
Q 4966 1984 4864 1901
Q 4762 1818 4480 1818
L 3213 1818
z
M 1453 3277
L 1453 2349
Q 1453 2253 1485 2224
Q 1517 2195 1606 2195
L 4378 2195
Q 4467 2195 4499 2224
Q 4531 2253 4531 2349
L 4531 3277
L 1453 3277
z
" transform="scale(0.015625)"/>
       <path id="NanumGothic-ace0" d="M 5728 499
Q 5760 499 5792 476
Q 5824 454 5824 416
L 5824 198
Q 5824 166 5792 140
Q 5760 115 5728 115
L 288 115
Q 250 115 221 140
Q 192 166 192 198
L 192 416
Q 192 454 221 476
Q 250 499 288 499
L 2566 499
L 2566 2464
Q 2566 2502 2588 2531
Q 2611 2560 2650 2560
L 2925 2560
Q 2957 2560 2982 2531
Q 3008 2502 3008 2464
L 3008 499
L 5728 499
z
M 998 4486
Q 998 4525 1030 4544
Q 1062 4563 1094 4563
L 4506 4563
Q 4659 4563 4752 4531
Q 4845 4499 4896 4438
Q 4947 4378 4966 4282
Q 4986 4186 4992 4051
Q 4998 3789 4992 3462
Q 4986 3136 4960 2784
Q 4934 2432 4889 2073
Q 4845 1715 4781 1389
Q 4774 1350 4748 1318
Q 4723 1286 4685 1293
L 4429 1312
Q 4320 1318 4352 1427
Q 4410 1677 4454 2038
Q 4499 2400 4528 2774
Q 4557 3149 4566 3491
Q 4576 3834 4557 4045
Q 4544 4134 4521 4156
Q 4499 4179 4410 4179
L 1094 4179
Q 1062 4179 1030 4201
Q 998 4224 998 4256
L 998 4486
z
" transform="scale(0.015625)"/>
       <path id="NanumGothic-c5f0" d="M 5152 864
Q 5152 774 5062 774
L 4800 774
Q 4710 774 4710 864
L 4710 2234
L 3270 2234
Q 3059 1978 2748 1834
Q 2438 1690 2067 1690
Q 1747 1690 1472 1798
Q 1197 1907 995 2108
Q 794 2310 675 2585
Q 557 2861 557 3200
Q 557 3552 675 3833
Q 794 4115 995 4313
Q 1197 4512 1472 4614
Q 1747 4717 2067 4717
Q 2458 4717 2800 4547
Q 3142 4378 3354 4058
L 4710 4058
L 4710 4915
Q 4710 5005 4800 5005
L 5062 5005
Q 5152 5005 5152 4915
L 5152 864
z
M 3155 3206
Q 3155 3475 3065 3683
Q 2976 3891 2825 4028
Q 2675 4166 2480 4236
Q 2285 4307 2067 4307
Q 1843 4307 1651 4236
Q 1459 4166 1315 4028
Q 1171 3891 1088 3683
Q 1005 3475 1005 3206
Q 1005 2950 1085 2745
Q 1165 2541 1305 2397
Q 1446 2253 1641 2173
Q 1837 2093 2067 2093
Q 2285 2093 2480 2173
Q 2675 2253 2825 2397
Q 2976 2541 3065 2745
Q 3155 2950 3155 3206
z
M 5344 -704
Q 5344 -742 5312 -761
Q 5280 -781 5248 -781
L 2042 -781
Q 1741 -781 1648 -669
Q 1555 -557 1555 -294
L 1555 960
Q 1555 1050 1645 1050
L 1907 1050
Q 1997 1050 1997 960
L 1997 -262
Q 1997 -352 2025 -374
Q 2054 -397 2144 -397
L 5248 -397
Q 5280 -397 5312 -419
Q 5344 -442 5344 -474
L 5344 -704
z
M 3603 3200
Q 3603 2880 3494 2611
L 4710 2611
L 4710 3680
L 3533 3680
Q 3603 3450 3603 3200
z
" transform="scale(0.015625)"/>
       <path id="NanumGothic-b3c4" d="M 5030 1984
Q 5030 1894 4947 1894
L 3213 1894
L 3213 499
L 5728 499
Q 5760 499 5792 476
Q 5824 454 5824 416
L 5824 198
Q 5824 166 5792 140
Q 5760 115 5728 115
L 288 115
Q 250 115 221 140
Q 192 166 192 198
L 192 416
Q 192 454 221 476
Q 250 499 288 499
L 2771 499
L 2771 1894
L 1491 1894
Q 1210 1894 1107 1987
Q 1005 2080 1005 2349
L 1005 4134
Q 1005 4403 1107 4496
Q 1210 4589 1491 4589
L 4902 4589
Q 4986 4589 4986 4506
L 4986 4294
Q 4986 4205 4902 4205
L 1600 4205
Q 1510 4205 1478 4166
Q 1446 4128 1446 4032
L 1446 2445
Q 1446 2355 1478 2316
Q 1510 2278 1600 2278
L 4947 2278
Q 5030 2278 5030 2195
L 5030 1984
z
" transform="scale(0.015625)"/>
      </defs>
      <use xlink:href="#NanumGothic-bcf4"/>
      <use xlink:href="#NanumGothic-ace0" transform="translate(93.999985 0)"/>
      <use xlink:href="#NanumGothic-c5f0" transform="translate(187.999969 0)"/>
      <use xlink:href="#NanumGothic-b3c4" transform="translate(281.999954 0)"/>
     </g>
    </g>
   </g>
   <g id="matplotlib.axis_2">
    <g id="ytick_1">
     <g id="line2d_7">
      <path d="M 43.239063 253.008782
L 503.749062 253.008782
" clip-path="url(#p94256acb3a)" style="fill: none; stroke: #b0b0b0; stroke-opacity: 0.25; stroke-width: 0.8; stroke-linecap: square"/>
     </g>
     <g id="line2d_8">
      <defs>
       <path id="m0d9b39b51d" d="M 0 0
L -3.5 0
" style="stroke: #000000; stroke-width: 0.8"/>
      </defs>
      <g>
       <use xlink:href="#m0d9b39b51d" x="43.239063" y="253.008782" style="stroke: #000000; stroke-width: 0.8"/>
      </g>
     </g>
     <g id="text_8">
      <!-- 0.3 -->
      <g transform="translate(21.090625 256.768938) scale(0.1 -0.1)">
       <defs>
        <path id="NanumGothic-2e" d="M 691 -256
Q 691 -122 784 -29
Q 877 64 1011 64
Q 1146 64 1238 -29
Q 1331 -122 1331 -256
Q 1331 -390 1238 -483
Q 1146 -576 1011 -576
Q 877 -576 784 -483
Q 691 -390 691 -256
z
" transform="scale(0.015625)"/>
       </defs>
       <use xlink:href="#NanumGothic-30"/>
       <use xlink:href="#NanumGothic-2e" transform="translate(60.599991 0)"/>
       <use xlink:href="#NanumGothic-33" transform="translate(90.899979 0)"/>
      </g>
     </g>
    </g>
    <g id="ytick_2">
     <g id="line2d_9">
      <path d="M 43.239063 220.110079
L 503.749062 220.110079
" clip-path="url(#p94256acb3a)" style="fill: none; stroke: #b0b0b0; stroke-opacity: 0.25; stroke-width: 0.8; stroke-linecap: square"/>
     </g>
     <g id="line2d_10">
      <g>
       <use xlink:href="#m0d9b39b51d" x="43.239063" y="220.110079" style="stroke: #000000; stroke-width: 0.8"/>
      </g>
     </g>
     <g id="text_9">
      <!-- 0.4 -->
      <g transform="translate(21.090625 223.870235) scale(0.1 -0.1)">
       <use xlink:href="#NanumGothic-30"/>
       <use xlink:href="#NanumGothic-2e" transform="translate(60.599991 0)"/>
       <use xlink:href="#NanumGothic-34" transform="translate(90.899979 0)"/>
      </g>
     </g>
    </g>
    <g id="ytick_3">
     <g id="line2d_11">
      <path d="M 43.239063 187.211376
L 503.749062 187.211376
" clip-path="url(#p94256acb3a)" style="fill: none; stroke: #b0b0b0; stroke-opacity: 0.25; stroke-width: 0.8; stroke-linecap: square"/>
     </g>
     <g id="line2d_12">
      <g>
       <use xlink:href="#m0d9b39b51d" x="43.239063" y="187.211376" style="stroke: #000000; stroke-width: 0.8"/>
      </g>
     </g>
     <g id="text_10">
      <!-- 0.5 -->
      <g transform="translate(21.090625 190.971532) scale(0.1 -0.1)">
       <use xlink:href="#NanumGothic-30"/>
       <use xlink:href="#NanumGothic-2e" transform="translate(60.599991 0)"/>
       <use xlink:href="#NanumGothic-35" transform="translate(90.899979 0)"/>
      </g>
     </g>
    </g>
    <g id="ytick_4">
     <g id="line2d_13">
      <path d="M 43.239063 154.312673
L 503.749062 154.312673
" clip-path="url(#p94256acb3a)" style="fill: none; stroke: #b0b0b0; stroke-opacity: 0.25; stroke-width: 0.8; stroke-linecap: square"/>
     </g>
     <g id="line2d_14">
      <g>
       <use xlink:href="#m0d9b39b51d" x="43.239063" y="154.312673" style="stroke: #000000; stroke-width: 0.8"/>
      </g>
     </g>
     <g id="text_11">
      <!-- 0.6 -->
      <g transform="translate(21.090625 158.07283) scale(0.1 -0.1)">
       <defs>
        <path id="NanumGothic-36" d="M 3078 1203
Q 3078 1722 2810 2022
Q 2541 2330 2042 2330
Q 1786 2330 1581 2250
Q 1376 2170 1232 2029
Q 1088 1888 1008 1689
Q 928 1491 928 1254
Q 928 768 1197 435
Q 1491 45 1984 45
Q 2490 45 2797 384
Q 3078 704 3078 1203
z
M 3245 4013
Q 3098 4064 2909 4096
Q 2720 4128 2534 4128
Q 1664 4128 1248 3501
Q 896 2976 883 2061
Q 1024 2317 1293 2496
Q 1626 2733 2042 2733
Q 2624 2733 3021 2426
Q 3526 2035 3526 1235
Q 3526 557 3110 109
Q 2688 -346 1971 -346
Q 435 -346 435 1920
Q 435 3104 909 3770
Q 1466 4525 2586 4525
Q 2752 4525 2934 4499
Q 3117 4474 3270 4429
Q 3366 4410 3354 4314
L 3341 4077
Q 3341 4032 3309 4016
Q 3277 4000 3245 4013
z
" transform="scale(0.015625)"/>
       </defs>
       <use xlink:href="#NanumGothic-30"/>
       <use xlink:href="#NanumGothic-2e" transform="translate(60.599991 0)"/>
       <use xlink:href="#NanumGothic-36" transform="translate(90.899979 0)"/>
      </g>
     </g>
    </g>
    <g id="ytick_5">
     <g id="line2d_15">
      <path d="M 43.239063 121.41397
L 503.749062 121.41397
" clip-path="url(#p94256acb3a)" style="fill: none; stroke: #b0b0b0; stroke-opacity: 0.25; stroke-width: 0.8; stroke-linecap: square"/>
     </g>
     <g id="line2d_16">
      <g>
       <use xlink:href="#m0d9b39b51d" x="43.239063" y="121.41397" style="stroke: #000000; stroke-width: 0.8"/>
      </g>
     </g>
     <g id="text_12">
      <!-- 0.7 -->
      <g transform="translate(21.090625 125.174127) scale(0.1 -0.1)">
       <defs>
        <path id="NanumGothic-37" d="M 1549 -211
Q 1504 -301 1421 -301
L 1101 -301
Q 1062 -301 1046 -275
Q 1030 -250 1050 -211
L 2912 4083
L 538 4083
Q 448 4083 448 4173
L 448 4384
Q 448 4474 538 4474
L 3194 4474
Q 3328 4474 3350 4451
Q 3373 4429 3373 4294
L 3373 4134
Q 3373 4083 3354 4045
L 1549 -211
z
" transform="scale(0.015625)"/>
       </defs>
       <use xlink:href="#NanumGothic-30"/>
       <use xlink:href="#NanumGothic-2e" transform="translate(60.599991 0)"/>
       <use xlink:href="#NanumGothic-37" transform="translate(90.899979 0)"/>
      </g>
     </g>
    </g>
    <g id="ytick_6">
     <g id="line2d_17">
      <path d="M 43.239063 88.515267
L 503.749062 88.515267
" clip-path="url(#p94256acb3a)" style="fill: none; stroke: #b0b0b0; stroke-opacity: 0.25; stroke-width: 0.8; stroke-linecap: square"/>
     </g>
     <g id="line2d_18">
      <g>
       <use xlink:href="#m0d9b39b51d" x="43.239063" y="88.515267" style="stroke: #000000; stroke-width: 0.8"/>
      </g>
     </g>
     <g id="text_13">
      <!-- 0.8 -->
      <g transform="translate(21.090625 92.275424) scale(0.1 -0.1)">
       <defs>
        <path id="NanumGothic-38" d="M 2944 3360
Q 2944 3725 2624 3936
Q 2342 4134 1965 4134
Q 1555 4134 1274 3930
Q 966 3725 966 3360
Q 966 3027 1286 2758
Q 1376 2675 1526 2579
Q 1677 2483 1882 2387
Q 1933 2362 1965 2365
Q 1997 2368 2061 2400
Q 2470 2624 2707 2870
Q 2944 3117 2944 3360
z
M 3104 960
Q 3104 1312 2784 1574
Q 2682 1658 2496 1760
Q 2310 1862 2042 1984
Q 1958 2029 1856 1984
Q 1606 1888 1414 1782
Q 1222 1677 1107 1587
Q 979 1459 899 1289
Q 819 1120 819 928
Q 819 538 1184 288
Q 1517 38 1965 38
Q 2426 38 2739 256
Q 3104 506 3104 960
z
M 3552 928
Q 3552 614 3421 364
Q 3290 115 3046 -51
Q 2835 -192 2560 -269
Q 2285 -346 1965 -346
Q 1651 -346 1379 -262
Q 1107 -179 883 -32
Q 640 141 505 387
Q 371 634 371 928
Q 371 1427 704 1741
Q 960 1984 1491 2182
Q 518 2662 518 3411
Q 518 3680 652 3888
Q 787 4096 1030 4262
Q 1235 4390 1468 4457
Q 1702 4525 1965 4525
Q 2272 4525 2515 4457
Q 2758 4390 2957 4256
Q 3398 3949 3398 3411
Q 3398 2746 2400 2182
Q 2662 2086 2870 1971
Q 3078 1856 3206 1741
Q 3552 1434 3552 928
z
" transform="scale(0.015625)"/>
       </defs>
       <use xlink:href="#NanumGothic-30"/>
       <use xlink:href="#NanumGothic-2e" transform="translate(60.599991 0)"/>
       <use xlink:href="#NanumGothic-38" transform="translate(90.899979 0)"/>
      </g>
     </g>
    </g>
    <g id="ytick_7">
     <g id="line2d_19">
      <path d="M 43.239063 55.616565
L 503.749062 55.616565
" clip-path="url(#p94256acb3a)" style="fill: none; stroke: #b0b0b0; stroke-opacity: 0.25; stroke-width: 0.8; stroke-linecap: square"/>
     </g>
     <g id="line2d_20">
      <g>
       <use xlink:href="#m0d9b39b51d" x="43.239063" y="55.616565" style="stroke: #000000; stroke-width: 0.8"/>
      </g>
     </g>
     <g id="text_14">
      <!-- 0.9 -->
      <g transform="translate(21.090625 59.376721) scale(0.1 -0.1)">
       <defs>
        <path id="NanumGothic-39" d="M 2995 2925
Q 2995 3424 2726 3763
Q 2432 4128 1946 4128
Q 1427 4128 1133 3802
Q 845 3494 845 2982
Q 845 2438 1107 2138
L 1101 2138
Q 1376 1843 1882 1843
Q 2406 1843 2701 2138
Q 2995 2445 2995 2925
z
M 653 -256
Q 557 -237 570 -109
L 589 115
Q 602 192 691 154
Q 851 90 1014 64
Q 1178 38 1382 38
Q 1830 38 2163 214
Q 2496 390 2707 717
Q 3027 1254 3040 2080
Q 2650 1453 1882 1453
Q 1293 1453 896 1754
Q 390 2144 390 2950
Q 390 3661 806 4083
Q 1229 4525 1958 4525
Q 3494 4525 3494 2259
Q 3494 -346 1338 -346
Q 1043 -346 653 -256
z
" transform="scale(0.015625)"/>
       </defs>
       <use xlink:href="#NanumGothic-30"/>
       <use xlink:href="#NanumGothic-2e" transform="translate(60.599991 0)"/>
       <use xlink:href="#NanumGothic-39" transform="translate(90.899979 0)"/>
      </g>
     </g>
    </g>
    <g id="ytick_8">
     <g id="line2d_21">
      <path d="M 43.239063 22.717862
L 503.749062 22.717862
" clip-path="url(#p94256acb3a)" style="fill: none; stroke: #b0b0b0; stroke-opacity: 0.25; stroke-width: 0.8; stroke-linecap: square"/>
     </g>
     <g id="line2d_22">
      <g>
       <use xlink:href="#m0d9b39b51d" x="43.239063" y="22.717862" style="stroke: #000000; stroke-width: 0.8"/>
      </g>
     </g>
     <g id="text_15">
      <!-- 1.0 -->
      <g transform="translate(21.090625 26.478018) scale(0.1 -0.1)">
       <use xlink:href="#NanumGothic-31"/>
       <use xlink:href="#NanumGothic-2e" transform="translate(60.599991 0)"/>
       <use xlink:href="#NanumGothic-30" transform="translate(90.899979 0)"/>
      </g>
     </g>
    </g>
    <g id="text_16">
     <!-- firm-year 비율 -->
     <g transform="translate(15.120313 178.864062) rotate(-90) scale(0.1 -0.1)">
      <defs>
       <path id="NanumGothic-66" d="M 2144 4870
Q 2227 4845 2221 4736
L 2208 4550
Q 2202 4512 2176 4502
Q 2150 4493 2118 4506
Q 2048 4531 1990 4540
Q 1933 4550 1856 4550
Q 1478 4550 1370 4173
Q 1325 4019 1325 3494
L 1325 3187
L 2029 3187
Q 2118 3187 2118 3098
L 2118 2906
Q 2118 2816 2029 2816
L 1325 2816
L 1325 -186
Q 1325 -275 1235 -275
L 986 -275
Q 896 -275 896 -186
L 896 2816
L 275 2816
Q 186 2816 186 2906
L 186 3098
Q 186 3187 275 3187
L 896 3187
L 896 3450
Q 896 4147 1024 4454
Q 1222 4915 1818 4915
Q 2003 4915 2144 4870
z
" transform="scale(0.015625)"/>
       <path id="NanumGothic-69" d="M 1050 -186
Q 1050 -275 960 -275
L 678 -275
Q 589 -275 589 -186
L 589 3098
Q 589 3187 678 3187
L 960 3187
Q 1050 3187 1050 3098
L 1050 -186
z
M 506 4397
Q 506 4525 595 4617
Q 685 4710 813 4710
Q 941 4710 1033 4617
Q 1126 4525 1126 4397
Q 1126 4269 1033 4179
Q 941 4090 813 4090
Q 685 4090 595 4179
Q 506 4269 506 4397
z
" transform="scale(0.015625)"/>
       <path id="NanumGothic-72" d="M 2221 2797
Q 2106 2835 1914 2835
Q 1440 2835 1210 2368
Q 1030 2003 1030 1434
L 1030 -186
Q 1030 -275 941 -275
L 691 -275
Q 602 -275 602 -186
L 602 2413
Q 602 2643 598 2787
Q 595 2931 589 3098
Q 589 3187 678 3187
L 915 3187
Q 1005 3187 1005 3098
L 1005 2470
Q 1318 3277 1926 3277
Q 2074 3277 2221 3238
Q 2259 3226 2288 3197
Q 2317 3168 2317 3117
L 2317 2848
Q 2317 2810 2285 2797
Q 2253 2784 2221 2797
z
" transform="scale(0.015625)"/>
       <path id="NanumGothic-6d" d="M 602 2374
Q 602 2643 595 2800
Q 589 2957 576 3098
Q 576 3187 666 3187
L 902 3187
Q 992 3187 992 3098
L 992 2752
Q 1139 2989 1388 3126
Q 1638 3264 2003 3264
Q 2387 3264 2675 3075
Q 2963 2886 3027 2522
Q 3162 2886 3459 3075
Q 3757 3264 4147 3264
Q 4397 3264 4598 3174
Q 4800 3085 4944 2928
Q 5088 2771 5165 2560
Q 5242 2349 5242 2112
L 5242 -186
Q 5242 -275 5152 -275
L 4909 -275
Q 4819 -275 4819 -192
L 4819 2022
Q 4819 2899 4083 2899
Q 3859 2899 3683 2800
Q 3507 2701 3382 2528
Q 3258 2355 3197 2124
Q 3136 1894 3142 1638
L 3142 -186
Q 3142 -275 3053 -275
L 2797 -275
Q 2707 -275 2707 -186
L 2707 2022
Q 2707 2899 1965 2899
Q 1530 2899 1280 2617
Q 1030 2336 1030 1875
L 1030 -186
Q 1030 -275 941 -275
L 691 -275
Q 602 -275 602 -186
L 602 2374
z
" transform="scale(0.015625)"/>
       <path id="NanumGothic-2d" d="M 1946 2419
Q 2016 2419 2025 2409
Q 2035 2400 2035 2330
L 2035 2048
Q 2035 1978 2025 1968
Q 2016 1958 1946 1958
L 448 1958
Q 378 1958 368 1968
Q 358 1978 358 2048
L 358 2330
Q 358 2400 368 2409
Q 378 2419 448 2419
L 1946 2419
z
" transform="scale(0.015625)"/>
       <path id="NanumGothic-79" d="M 301 -1222
Q 224 -1203 237 -1126
L 256 -909
Q 256 -832 333 -864
Q 435 -902 570 -902
Q 704 -902 816 -860
Q 928 -819 986 -749
Q 1056 -659 1142 -454
Q 1229 -250 1312 13
Q 1024 794 742 1555
Q 461 2317 173 3098
Q 160 3130 173 3158
Q 186 3187 224 3187
L 525 3187
Q 614 3187 653 3098
L 1517 614
Q 1754 1267 1968 1859
Q 2182 2451 2419 3098
Q 2451 3187 2547 3187
L 2822 3187
Q 2861 3187 2873 3158
Q 2886 3130 2874 3098
L 1542 -474
Q 1472 -659 1385 -806
Q 1299 -954 1210 -1043
Q 1094 -1152 953 -1206
Q 813 -1261 659 -1261
Q 563 -1261 486 -1254
Q 410 -1248 301 -1222
z
" transform="scale(0.015625)"/>
       <path id="NanumGothic-65" d="M 2733 1696
Q 2733 1958 2681 2163
Q 2630 2368 2522 2534
Q 2285 2912 1837 2912
Q 1376 2912 1088 2528
Q 973 2355 896 2131
Q 819 1907 813 1696
L 2733 1696
z
M 813 1331
Q 806 1011 886 764
Q 966 518 1120 352
Q 1274 186 1488 96
Q 1702 6 1965 6
Q 2221 6 2445 54
Q 2669 102 2861 211
Q 2944 250 2944 166
L 2944 -122
Q 2944 -179 2874 -211
Q 2662 -294 2432 -336
Q 2202 -378 1933 -378
Q 1146 -378 742 80
Q 339 538 339 1459
Q 339 2272 742 2771
Q 1165 3277 1811 3277
Q 2170 3277 2432 3149
Q 2694 3021 2880 2765
Q 3206 2310 3206 1549
Q 3206 1466 3203 1421
Q 3200 1376 3181 1357
Q 3162 1338 3114 1334
Q 3066 1331 2976 1331
L 813 1331
z
" transform="scale(0.015625)"/>
       <path id="NanumGothic-61" d="M 2566 1530
L 2445 1530
Q 2086 1542 1808 1500
Q 1530 1459 1344 1389
Q 1075 1293 940 1104
Q 806 915 806 653
Q 806 493 857 355
Q 909 218 1018 141
Q 1210 -13 1530 -13
Q 1754 -13 1942 76
Q 2131 166 2272 332
Q 2413 499 2489 745
Q 2566 992 2566 1312
L 2566 1530
z
M 742 2650
Q 710 2630 681 2640
Q 653 2650 653 2682
L 653 2925
Q 653 3014 742 3059
Q 966 3181 1219 3229
Q 1472 3277 1773 3277
Q 2413 3277 2707 2973
Q 3002 2669 3002 2054
L 3002 448
Q 3002 256 3008 105
Q 3014 -45 3027 -186
Q 3027 -275 2938 -275
L 2707 -275
Q 2618 -275 2618 -186
L 2618 307
Q 2483 -19 2166 -198
Q 1850 -378 1478 -378
Q 832 -378 531 0
Q 429 128 377 297
Q 326 467 326 634
Q 326 1024 508 1305
Q 691 1587 1069 1728
Q 1530 1894 2483 1894
L 2566 1894
L 2566 2086
Q 2566 2490 2384 2701
Q 2202 2912 1773 2912
Q 1485 2912 1229 2851
Q 973 2790 742 2650
z
" transform="scale(0.015625)"/>
       <path id="NanumGothic-20" transform="scale(0.015625)"/>
       <path id="NanumGothic-be44" d="M 5158 -806
Q 5158 -896 5069 -896
L 4806 -896
Q 4717 -896 4717 -806
L 4717 4915
Q 4717 5005 4806 5005
L 5069 5005
Q 5158 5005 5158 4915
L 5158 -806
z
M 1178 781
Q 1024 781 931 800
Q 838 819 787 873
Q 736 928 717 1014
Q 698 1101 698 1235
L 698 4602
Q 698 4634 723 4656
Q 749 4678 781 4678
L 1056 4678
Q 1088 4678 1110 4652
Q 1133 4627 1133 4602
L 1133 3117
L 3117 3117
L 3117 4595
Q 3117 4627 3139 4652
Q 3162 4678 3194 4678
L 3469 4678
Q 3501 4678 3526 4656
Q 3552 4634 3552 4602
L 3552 1190
Q 3552 947 3449 864
Q 3347 781 3066 781
L 1178 781
z
M 1133 2739
L 1133 1312
Q 1133 1216 1165 1187
Q 1197 1158 1286 1158
L 2963 1158
Q 3053 1158 3085 1187
Q 3117 1216 3117 1312
L 3117 2739
L 1133 2739
z
" transform="scale(0.015625)"/>
       <path id="NanumGothic-c728" d="M 5075 -781
Q 5075 -813 5046 -835
Q 5018 -858 4992 -858
L 1549 -858
Q 1248 -858 1155 -746
Q 1062 -634 1062 -365
L 1062 32
Q 1062 301 1174 393
Q 1286 486 1574 486
L 4365 486
Q 4454 486 4480 512
Q 4506 538 4506 634
L 4506 928
Q 4506 1024 4483 1049
Q 4461 1075 4371 1075
L 1139 1075
Q 1107 1075 1078 1094
Q 1050 1114 1050 1146
L 1050 1370
Q 1050 1402 1078 1421
Q 1107 1440 1139 1440
L 1786 1440
L 1786 2106
L 288 2106
Q 250 2106 221 2131
Q 192 2157 192 2189
L 192 2406
Q 192 2445 221 2467
Q 250 2490 288 2490
L 5728 2490
Q 5760 2490 5792 2467
Q 5824 2445 5824 2406
L 5824 2189
Q 5824 2157 5792 2131
Q 5760 2106 5728 2106
L 4192 2106
L 4192 1440
L 4435 1440
Q 4589 1440 4685 1417
Q 4781 1395 4838 1344
Q 4896 1293 4918 1200
Q 4941 1107 4941 973
L 4941 576
Q 4941 307 4829 214
Q 4717 122 4429 122
L 1632 122
Q 1542 122 1520 96
Q 1498 70 1498 -26
L 1498 -339
Q 1498 -429 1523 -457
Q 1549 -486 1638 -486
L 4986 -486
Q 5018 -486 5046 -505
Q 5075 -525 5075 -557
L 5075 -781
z
M 3002 2874
Q 2701 2874 2355 2918
Q 2010 2963 1715 3088
Q 1421 3213 1229 3424
Q 1037 3635 1037 3974
Q 1037 4307 1229 4518
Q 1421 4730 1715 4851
Q 2010 4973 2355 5021
Q 2701 5069 3002 5069
Q 3315 5069 3660 5024
Q 4006 4979 4297 4857
Q 4589 4736 4777 4521
Q 4966 4307 4966 3974
Q 4966 3635 4774 3424
Q 4582 3213 4291 3088
Q 4000 2963 3654 2918
Q 3309 2874 3002 2874
z
M 3002 4678
Q 2790 4678 2528 4652
Q 2266 4627 2035 4550
Q 1805 4474 1648 4333
Q 1491 4192 1491 3968
Q 1491 3744 1648 3606
Q 1805 3469 2035 3392
Q 2266 3315 2528 3289
Q 2790 3264 3002 3264
Q 3206 3264 3468 3289
Q 3731 3315 3961 3392
Q 4192 3469 4352 3606
Q 4512 3744 4512 3968
Q 4512 4192 4352 4333
Q 4192 4474 3961 4550
Q 3731 4627 3468 4652
Q 3206 4678 3002 4678
z
M 2227 1440
L 3750 1440
L 3750 2106
L 2227 2106
L 2227 1440
z
" transform="scale(0.015625)"/>
      </defs>
      <use xlink:href="#NanumGothic-66"/>
      <use xlink:href="#NanumGothic-69" transform="translate(36.299988 0)"/>
      <use xlink:href="#NanumGothic-72" transform="translate(60.499985 0)"/>
      <use xlink:href="#NanumGothic-6d" transform="translate(96.799973 0)"/>
      <use xlink:href="#NanumGothic-2d" transform="translate(187.59996 0)"/>
      <use xlink:href="#NanumGothic-79" transform="translate(223.899948 0)"/>
      <use xlink:href="#NanumGothic-65" transform="translate(270.299942 0)"/>
      <use xlink:href="#NanumGothic-61" transform="translate(324.799927 0)"/>
      <use xlink:href="#NanumGothic-72" transform="translate(379.299911 0)"/>
      <use xlink:href="#NanumGothic-20" transform="translate(415.599899 0)"/>
      <use xlink:href="#NanumGothic-be44" transform="translate(443.599884 0)"/>
      <use xlink:href="#NanumGothic-c728" transform="translate(537.599869 0)"/>
     </g>
    </g>
   </g>
   <g id="line2d_23">
    <path d="M 64.171335 260.975284
L 147.900426 249.163479
L 231.629517 235.057685
L 315.358608 127.114581
L 399.087699 60.547992
L 482.81679 33.593466
" clip-path="url(#p94256acb3a)" style="fill: none; stroke: #1f77b4; stroke-width: 1.5; stroke-linecap: square"/>
    <defs>
     <path id="m7e19a6a706" d="M 0 3
C 0.795609 3 1.55874 2.683901 2.12132 2.12132
C 2.683901 1.55874 3 0.795609 3 0
C 3 -0.795609 2.683901 -1.55874 2.12132 -2.12132
C 1.55874 -2.683901 0.795609 -3 0 -3
C -0.795609 -3 -1.55874 -2.683901 -2.12132 -2.12132
C -2.683901 -1.55874 -3 -0.795609 -3 0
C -3 0.795609 -2.683901 1.55874 -2.12132 2.12132
C -1.55874 2.683901 -0.795609 3 0 3
z
" style="stroke: #1f77b4"/>
    </defs>
    <g clip-path="url(#p94256acb3a)">
     <use xlink:href="#m7e19a6a706" x="64.171335" y="260.975284" style="fill: #1f77b4; stroke: #1f77b4"/>
     <use xlink:href="#m7e19a6a706" x="147.900426" y="249.163479" style="fill: #1f77b4; stroke: #1f77b4"/>
     <use xlink:href="#m7e19a6a706" x="231.629517" y="235.057685" style="fill: #1f77b4; stroke: #1f77b4"/>
     <use xlink:href="#m7e19a6a706" x="315.358608" y="127.114581" style="fill: #1f77b4; stroke: #1f77b4"/>
     <use xlink:href="#m7e19a6a706" x="399.087699" y="60.547992" style="fill: #1f77b4; stroke: #1f77b4"/>
     <use xlink:href="#m7e19a6a706" x="482.81679" y="33.593466" style="fill: #1f77b4; stroke: #1f77b4"/>
    </g>
   </g>
   <g id="patch_3">
    <path d="M 43.239063 272.344375
L 43.239063 22.224375
" style="fill: none; stroke: #000000; stroke-width: 0.8; stroke-linejoin: miter; stroke-linecap: square"/>
   </g>
   <g id="patch_4">
    <path d="M 503.749062 272.344375
L 503.749062 22.224375
" style="fill: none; stroke: #000000; stroke-width: 0.8; stroke-linejoin: miter; stroke-linecap: square"/>
   </g>
   <g id="patch_5">
    <path d="M 43.239063 272.344375
L 503.749063 272.344375
" style="fill: none; stroke: #000000; stroke-width: 0.8; stroke-linejoin: miter; stroke-linecap: square"/>
   </g>
   <g id="patch_6">
    <path d="M 43.239063 22.224375
L 503.749063 22.224375
" style="fill: none; stroke: #000000; stroke-width: 0.8; stroke-linejoin: miter; stroke-linecap: square"/>
   </g>
   <g id="text_17">
    <!-- 연도별 AI 공시 비율 -->
    <g transform="translate(223.159687 16.224375) scale(0.12 -0.12)">
     <defs>
      <path id="NanumGothic-bcc4" d="M 1190 2106
Q 1037 2106 944 2125
Q 851 2144 800 2198
Q 749 2253 729 2339
Q 710 2426 710 2560
L 710 4838
Q 710 4870 736 4892
Q 762 4915 794 4915
L 1069 4915
Q 1101 4915 1123 4889
Q 1146 4864 1146 4838
L 1146 3821
L 3014 3821
L 3014 4832
Q 3014 4864 3036 4889
Q 3059 4915 3091 4915
L 3366 4915
Q 3398 4915 3424 4892
Q 3450 4870 3450 4838
L 3450 4102
L 4710 4102
L 4710 4915
Q 4710 5005 4800 5005
L 5062 5005
Q 5152 5005 5152 4915
L 5152 1997
Q 5152 1907 5062 1907
L 4800 1907
Q 4710 1907 4710 1997
L 4710 2688
L 3450 2688
L 3450 2515
Q 3450 2272 3347 2189
Q 3245 2106 2963 2106
L 1190 2106
z
M 5286 -838
Q 5286 -870 5257 -892
Q 5229 -915 5203 -915
L 1978 -915
Q 1677 -915 1584 -803
Q 1491 -691 1491 -422
L 1491 58
Q 1491 326 1603 419
Q 1715 512 2003 512
L 4570 512
Q 4659 512 4684 537
Q 4710 563 4710 659
L 4710 1024
Q 4710 1120 4688 1145
Q 4666 1171 4576 1171
L 1568 1171
Q 1536 1171 1507 1190
Q 1478 1210 1478 1242
L 1478 1472
Q 1478 1504 1507 1523
Q 1536 1542 1568 1542
L 4646 1542
Q 4800 1542 4896 1520
Q 4992 1498 5049 1446
Q 5107 1395 5129 1302
Q 5152 1210 5152 1075
L 5152 595
Q 5152 326 5040 233
Q 4928 141 4640 141
L 2074 141
Q 1984 141 1961 115
Q 1939 90 1939 -6
L 1939 -397
Q 1939 -486 1964 -515
Q 1990 -544 2080 -544
L 5197 -544
Q 5229 -544 5257 -563
Q 5286 -582 5286 -614
L 5286 -838
z
M 1146 3443
L 1146 2637
Q 1146 2541 1178 2512
Q 1210 2483 1299 2483
L 2861 2483
Q 2950 2483 2982 2512
Q 3014 2541 3014 2637
L 3014 3443
L 1146 3443
z
M 3450 3066
L 4710 3066
L 4710 3725
L 3450 3725
L 3450 3066
z
" transform="scale(0.015625)"/>
      <path id="NanumGothic-41" d="M 3386 1402
Q 3117 2067 2870 2716
Q 2624 3366 2355 4032
Q 2086 3366 1827 2716
Q 1568 2067 1299 1402
L 3386 1402
z
M 4499 -186
Q 4531 -275 4442 -275
L 4134 -275
Q 4096 -275 4067 -262
Q 4038 -250 4013 -186
L 3539 992
L 1133 992
Q 1011 691 896 403
Q 781 115 666 -186
Q 640 -250 611 -262
Q 582 -275 544 -275
L 243 -275
Q 154 -275 186 -186
L 2067 4397
Q 2099 4474 2182 4474
L 2573 4474
Q 2656 4474 2688 4397
L 4499 -186
z
" transform="scale(0.015625)"/>
      <path id="NanumGothic-49" d="M 1069 -186
Q 1069 -275 979 -275
L 672 -275
Q 582 -275 582 -186
L 582 4371
Q 582 4461 672 4461
L 979 4461
Q 1069 4461 1069 4371
L 1069 -186
z
" transform="scale(0.015625)"/>
      <path id="NanumGothic-acf5" d="M 4992 243
Q 4992 -70 4813 -294
Q 4634 -518 4349 -659
Q 4064 -800 3705 -867
Q 3347 -934 2995 -934
Q 2650 -934 2294 -867
Q 1939 -800 1651 -659
Q 1363 -518 1184 -294
Q 1005 -70 1005 243
Q 1005 550 1184 774
Q 1363 998 1651 1142
Q 1939 1286 2294 1356
Q 2650 1427 2995 1427
Q 3354 1427 3709 1360
Q 4064 1293 4349 1149
Q 4634 1005 4813 781
Q 4992 557 4992 243
z
M 4525 237
Q 4525 448 4374 595
Q 4224 742 3993 838
Q 3763 934 3494 979
Q 3226 1024 2995 1024
Q 2752 1024 2483 979
Q 2214 934 1990 838
Q 1766 742 1619 595
Q 1472 448 1472 237
Q 1472 32 1619 -115
Q 1766 -262 1990 -355
Q 2214 -448 2483 -489
Q 2752 -531 2995 -531
Q 3232 -531 3501 -489
Q 3770 -448 3997 -355
Q 4224 -262 4374 -115
Q 4525 32 4525 237
z
M 2918 3475
Q 2950 3475 2976 3446
Q 3002 3418 3002 3379
L 3002 2304
L 5728 2304
Q 5760 2304 5792 2281
Q 5824 2259 5824 2221
L 5824 2003
Q 5824 1971 5792 1945
Q 5760 1920 5728 1920
L 288 1920
Q 250 1920 221 1945
Q 192 1971 192 2003
L 192 2221
Q 192 2259 221 2281
Q 250 2304 288 2304
L 2573 2304
L 2573 3379
Q 2573 3418 2595 3446
Q 2618 3475 2656 3475
L 2918 3475
z
M 1056 4794
Q 1056 4832 1088 4851
Q 1120 4870 1152 4870
L 4461 4870
Q 4614 4870 4707 4838
Q 4800 4806 4851 4745
Q 4902 4685 4924 4589
Q 4947 4493 4947 4358
Q 4947 4166 4934 3948
Q 4922 3731 4896 3520
Q 4870 3309 4835 3113
Q 4800 2918 4768 2771
Q 4755 2733 4732 2701
Q 4710 2669 4672 2675
L 4416 2694
Q 4307 2701 4339 2810
Q 4378 2950 4410 3152
Q 4442 3354 4467 3568
Q 4493 3782 4502 3990
Q 4512 4198 4512 4352
Q 4512 4442 4483 4464
Q 4454 4486 4365 4486
L 1152 4486
Q 1120 4486 1088 4508
Q 1056 4531 1056 4563
L 1056 4794
z
" transform="scale(0.015625)"/>
      <path id="NanumGothic-c2dc" d="M 2406 4589
Q 2406 4166 2371 3779
Q 2336 3392 2259 3034
Q 2323 2778 2457 2493
Q 2592 2208 2774 1926
Q 2957 1645 3184 1379
Q 3411 1114 3667 902
Q 3699 877 3702 838
Q 3706 800 3686 774
L 3526 576
Q 3469 506 3392 576
Q 3213 730 3024 944
Q 2835 1158 2659 1395
Q 2483 1632 2329 1881
Q 2176 2131 2067 2362
Q 1862 1779 1529 1289
Q 1197 800 736 378
Q 672 326 627 371
L 435 570
Q 416 589 419 621
Q 422 653 454 685
Q 845 1056 1133 1465
Q 1421 1875 1603 2348
Q 1786 2822 1872 3379
Q 1958 3936 1958 4602
Q 1958 4646 1980 4668
Q 2003 4691 2035 4691
L 2336 4678
Q 2406 4678 2406 4589
z
M 5152 -806
Q 5152 -896 5062 -896
L 4800 -896
Q 4710 -896 4710 -806
L 4710 4915
Q 4710 5005 4800 5005
L 5062 5005
Q 5152 5005 5152 4915
L 5152 -806
z
" transform="scale(0.015625)"/>
     </defs>
     <use xlink:href="#NanumGothic-c5f0"/>
     <use xlink:href="#NanumGothic-b3c4" transform="translate(93.999985 0)"/>
     <use xlink:href="#NanumGothic-bcc4" transform="translate(187.999969 0)"/>
     <use xlink:href="#NanumGothic-20" transform="translate(281.999954 0)"/>
     <use xlink:href="#NanumGothic-41" transform="translate(309.999939 0)"/>
     <use xlink:href="#NanumGothic-49" transform="translate(382.699921 0)"/>
     <use xlink:href="#NanumGothic-20" transform="translate(406.899918 0)"/>
     <use xlink:href="#NanumGothic-acf5" transform="translate(434.899902 0)"/>
     <use xlink:href="#NanumGothic-c2dc" transform="translate(528.899887 0)"/>
     <use xlink:href="#NanumGothic-20" transform="translate(622.899872 0)"/>
     <use xlink:href="#NanumGothic-be44" transform="translate(650.899857 0)"/>
     <use xlink:href="#NanumGothic-c728" transform="translate(744.899841 0)"/>
    </g>
   </g>
  </g>
 </g>
 <defs>
  <clipPath id="p94256acb3a">
   <rect x="43.239063" y="22.224375" width="460.51" height="250.12"/>
  </clipPath>
 </defs>
</svg>
