<?xml version="1.0" encoding="utf-8" standalone="no"?>
<!DOCTYPE svg PUBLIC "-//W3C//DTD SVG 1.1//EN"
  "http://www.w3.org/Graphics/SVG/1.1/DTD/svg11.dtd">
<svg xmlns:xlink="http://www.w3.org/1999/xlink" width="511.34625pt" height="309.50375pt" viewBox="0 0 511.34625 309.50375" xmlns="http://www.w3.org/2000/svg" version="1.1">
 <metadata>
  <rdf:RDF xmlns:dc="http://purl.org/dc/elements/1.1/" xmlns:cc="http://creativecommons.org/ns#" xmlns:rdf="http://www.w3.org/1999/02/22-rdf-syntax-ns#">
   <cc:Work>
    <dc:type rdf:resource="http://purl.org/dc/dcmitype/StillImage"/>
    <dc:date>2026-07-31T10:40:14.354154</dc:date>
    <dc:format>image/svg+xml</dc:format>
    <dc:creator>
     <cc:Agent>
      <dc:title>Matplotlib v3.10.5, https://matplotlib.org/</dc:title>
     </cc:Agent>
    </dc:creator>
   </cc:Work>
  </rdf:RDF>
 </metadata>
 <defs>
  <style type="text/css">*{stroke-linejoin: round; stroke-linecap: butt}</style>
 </defs>
 <g id="figure_1">
  <g id="patch_1">
   <path d="M 0 309.50375
L 511.34625 309.50375
L 511.34625 0
L 0 0
z
" style="fill: #ffffff"/>
  </g>
  <g id="axes_1">
   <g id="patch_2">
    <path d="M 61.00625 272.344375
L 504.14625 272.344375
L 504.14625 22.224375
L 61.00625 22.224375
z
" style="fill: #ffffff"/>
   </g>
   <g id="matplotlib.axis_1">
    <g id="xtick_1">
     <g id="line2d_1">
      <defs>
       <path id="md1e20d21be" d="M 0 0
L 0 3.5
" style="stroke: #000000; stroke-width: 0.8"/>
      </defs>
      <g>
       <use xlink:href="#md1e20d21be" x="81.148977" y="272.344375" style="stroke: #000000; stroke-width: 0.8"/>
      </g>
     </g>
     <g id="text_1">
      <!-- 2020 -->
      <g transform="translate(69.030227 286.864687) scale(0.1 -0.1)">
       <defs>
        <path id="NanumGothic-32" d="M 576 -301
Q 506 -301 470 -297
Q 435 -294 419 -278
Q 403 -262 400 -227
Q 397 -192 397 -122
L 403 19
Q 403 102 454 154
L 1510 1318
Q 2688 2592 2688 3251
Q 2688 3635 2432 3891
Q 2182 4141 1811 4141
Q 1293 4141 730 3853
Q 640 3808 627 3891
L 589 4102
Q 570 4211 653 4237
Q 979 4384 1241 4454
Q 1504 4525 1779 4525
Q 2394 4525 2758 4218
Q 3168 3885 3168 3270
Q 3168 3034 3053 2752
Q 2938 2470 2733 2163
Q 2605 1984 2371 1696
Q 2138 1408 1837 1082
Q 1613 838 1392 588
Q 1171 339 947 96
L 3187 96
Q 3277 96 3277 6
L 3277 -211
Q 3277 -301 3187 -301
L 576 -301
z
" transform="scale(0.015625)"/>
        <path id="NanumGothic-30" d="M 3066 2093
Q 3066 4102 1965 4102
Q 864 4102 864 2093
Q 864 77 1965 77
Q 3066 77 3066 2093
z
M 3526 2093
Q 3526 -326 1965 -326
Q 390 -326 390 2093
Q 390 3098 698 3725
Q 1088 4512 1965 4512
Q 2829 4512 3226 3725
Q 3373 3411 3449 3008
Q 3526 2605 3526 2093
z
" transform="scale(0.015625)"/>
       </defs>
       <use xlink:href="#NanumGothic-32"/>
       <use xlink:href="#NanumGothic-30" transform="translate(60.599991 0)"/>
       <use xlink:href="#NanumGothic-32" transform="translate(121.199982 0)"/>
       <use xlink:href="#NanumGothic-30" transform="translate(181.799973 0)"/>
      </g>
     </g>
    </g>
    <g id="xtick_2">
     <g id="line2d_2">
      <g>
       <use xlink:href="#md1e20d21be" x="161.719886" y="272.344375" style="stroke: #000000; stroke-width: 0.8"/>
      </g>
     </g>
     <g id="text_2">
      <!-- 2021 -->
      <g transform="translate(149.601136 286.864687) scale(0.1 -0.1)">
       <defs>
        <path id="NanumGothic-31" d="M 2362 -211
Q 2362 -301 2272 -301
L 2010 -301
Q 1920 -301 1920 -211
L 1920 3949
Q 1722 3782 1549 3635
Q 1376 3488 1184 3322
Q 1114 3264 1056 3334
L 928 3488
Q 909 3520 909 3555
Q 909 3590 941 3616
L 1933 4448
Q 1958 4474 2010 4474
L 2182 4474
Q 2317 4474 2339 4451
Q 2362 4429 2362 4294
L 2362 -211
z
" transform="scale(0.015625)"/>
       </defs>
       <use xlink:href="#NanumGothic-32"/>
       <use xlink:href="#NanumGothic-30" transform="translate(60.599991 0)"/>
       <use xlink:href="#NanumGothic-32" transform="translate(121.199982 0)"/>
       <use xlink:href="#NanumGothic-31" transform="translate(181.799973 0)"/>
      </g>
     </g>
    </g>
    <g id="xtick_3">
     <g id="line2d_3">
      <g>
       <use xlink:href="#md1e20d21be" x="242.290795" y="272.344375" style="stroke: #000000; stroke-width: 0.8"/>
      </g>
     </g>
     <g id="text_3">
      <!-- 2022 -->
      <g transform="translate(230.172045 286.864687) scale(0.1 -0.1)">
       <use xlink:href="#NanumGothic-32"/>
       <use xlink:href="#NanumGothic-30" transform="translate(60.599991 0)"/>
       <use xlink:href="#NanumGothic-32" transform="translate(121.199982 0)"/>
       <use xlink:href="#NanumGothic-32" transform="translate(181.799973 0)"/>
      </g>
     </g>
    </g>
    <g id="xtick_4">
     <g id="line2d_4">
      <g>
       <use xlink:href="#md1e20d21be" x="322.861705" y="272.344375" style="stroke: #000000; stroke-width: 0.8"/>
      </g>
     </g>
     <g id="text_4">
      <!-- 2023 -->
      <g transform="translate(310.742955 286.864687) scale(0.1 -0.1)">
       <defs>
        <path id="NanumGothic-33" d="M 493 -192
Q 397 -166 410 -45
L 435 205
Q 448 282 538 243
Q 806 134 1046 89
Q 1286 45 1606 38
Q 2112 32 2458 294
Q 2861 563 2861 1082
Q 2861 1990 1498 1990
L 1165 1990
Q 1082 1990 1082 2061
L 1082 2298
Q 1082 2381 1165 2381
L 1197 2381
Q 1882 2381 2266 2528
Q 2848 2752 2848 3334
Q 2848 3520 2749 3677
Q 2650 3834 2483 3942
Q 2330 4032 2138 4083
Q 1946 4134 1734 4134
Q 1517 4134 1254 4076
Q 992 4019 749 3923
Q 666 3891 653 3974
L 627 4211
Q 608 4301 710 4339
Q 998 4435 1248 4480
Q 1498 4525 1779 4525
Q 2426 4525 2835 4250
Q 3302 3936 3302 3334
Q 3302 2906 2995 2592
Q 2739 2317 2330 2189
Q 2534 2163 2710 2080
Q 2886 1997 3014 1850
Q 3162 1690 3238 1488
Q 3315 1286 3315 1043
Q 3315 723 3184 464
Q 3053 205 2810 19
Q 2573 -154 2265 -253
Q 1958 -352 1581 -346
Q 1242 -339 995 -307
Q 749 -275 493 -192
z
" transform="scale(0.015625)"/>
       </defs>
       <use xlink:href="#NanumGothic-32"/>
       <use xlink:href="#NanumGothic-30" transform="translate(60.599991 0)"/>
       <use xlink:href="#NanumGothic-32" transform="translate(121.199982 0)"/>
       <use xlink:href="#NanumGothic-33" transform="translate(181.799973 0)"/>
      </g>
     </g>
    </g>
    <g id="xtick_5">
     <g id="line2d_5">
      <g>
       <use xlink:href="#md1e20d21be" x="403.432614" y="272.344375" style="stroke: #000000; stroke-width: 0.8"/>
      </g>
     </g>
     <g id="text_5">
      <!-- 2024 -->
      <g transform="translate(391.313864 286.864687) scale(0.1 -0.1)">
       <defs>
        <path id="NanumGothic-34" d="M 2509 1216
L 2509 4070
Q 2035 3354 1568 2643
Q 1101 1933 621 1216
L 2509 1216
z
M 2944 -211
Q 2944 -301 2854 -301
L 2598 -301
Q 2509 -301 2509 -211
L 2509 826
L 397 826
Q 262 826 240 848
Q 218 870 218 1005
L 218 1203
Q 218 1261 224 1280
Q 230 1299 262 1350
L 2304 4397
Q 2342 4454 2358 4464
Q 2374 4474 2445 4474
L 2765 4474
Q 2899 4474 2921 4451
Q 2944 4429 2944 4294
L 2944 1216
L 3578 1216
Q 3667 1216 3667 1126
L 3667 915
Q 3667 826 3578 826
L 2944 826
L 2944 -211
z
" transform="scale(0.015625)"/>
       </defs>
       <use xlink:href="#NanumGothic-32"/>
       <use xlink:href="#NanumGothic-30" transform="translate(60.599991 0)"/>
       <use xlink:href="#NanumGothic-32" transform="translate(121.199982 0)"/>
       <use xlink:href="#NanumGothic-34" transform="translate(181.799973 0)"/>
      </g>
     </g>
    </g>
    <g id="xtick_6">
     <g id="line2d_6">
      <g>
       <use xlink:href="#md1e20d21be" x="484.003523" y="272.344375" style="stroke: #000000; stroke-width: 0.8"/>
      </g>
     </g>
     <g id="text_6">
      <!-- 2025 -->
      <g transform="translate(471.884773 286.864687) scale(0.1 -0.1)">
       <defs>
        <path id="NanumGothic-35" d="M 736 -205
Q 646 -173 646 -90
L 646 179
Q 646 288 736 243
Q 966 134 1187 89
Q 1408 45 1670 45
Q 2234 45 2586 320
Q 2970 614 2970 1165
Q 2970 2246 1734 2246
Q 1491 2246 1296 2220
Q 1101 2195 864 2131
Q 794 2112 749 2147
Q 704 2182 704 2253
L 742 4294
Q 742 4429 764 4451
Q 787 4474 922 4474
L 3110 4474
Q 3200 4474 3200 4384
L 3200 4173
Q 3200 4083 3110 4083
L 1178 4083
Q 1171 3680 1161 3296
Q 1152 2912 1146 2509
Q 1459 2630 1907 2630
Q 2579 2630 2995 2266
Q 3411 1888 3411 1254
Q 3411 480 2931 58
Q 2470 -346 1670 -346
Q 1382 -346 1171 -314
Q 960 -282 736 -205
z
" transform="scale(0.015625)"/>
       </defs>
       <use xlink:href="#NanumGothic-32"/>
       <use xlink:href="#NanumGothic-30" transform="translate(60.599991 0)"/>
       <use xlink:href="#NanumGothic-32" transform="translate(121.199982 0)"/>
       <use xlink:href="#NanumGothic-35" transform="translate(181.799973 0)"/>
      </g>
     </g>
    </g>
    <g id="text_7">
     <!-- 보고연도 -->
     <g transform="translate(263.77625 300.344375) scale(0.1 -0.1)">
      <defs>
       <path id="NanumGothic-bcf4" d="M 3213 1818
L 3213 499
L 5728 499
Q 5760 499 5792 476
Q 5824 454 5824 416
L 5824 198
Q 5824 166 5792 140
Q 5760 115 5728 115
L 288 115
Q 250 115 221 140
Q 192 166 192 198
L 192 416
Q 192 454 221 476
Q 250 499 288 499
L 2771 499
L 2771 1818
L 1498 1818
Q 1344 1818 1251 1837
Q 1158 1856 1107 1910
Q 1056 1965 1037 2051
Q 1018 2138 1018 2272
L 1018 4672
Q 1018 4704 1043 4726
Q 1069 4749 1101 4749
L 1376 4749
Q 1408 4749 1430 4723
Q 1453 4698 1453 4672
L 1453 3654
L 4531 3654
L 4531 4666
Q 4531 4698 4553 4723
Q 4576 4749 4608 4749
L 4883 4749
Q 4915 4749 4940 4726
Q 4966 4704 4966 4672
L 4966 2227
Q 4966 1984 4864 1901
Q 4762 1818 4480 1818
L 3213 1818
z
M 1453 3277
L 1453 2349
Q 1453 2253 1485 2224
Q 1517 2195 1606 2195
L 4378 2195
Q 4467 2195 4499 2224
Q 4531 2253 4531 2349
L 4531 3277
L 1453 3277
z
" transform="scale(0.015625)"/>
       <path id="NanumGothic-ace0" d="M 5728 499
Q 5760 499 5792 476
Q 5824 454 5824 416
L 5824 198
Q 5824 166 5792 140
Q 5760 115 5728 115
L 288 115
Q 250 115 221 140
Q 192 166 192 198
L 192 416
Q 192 454 221 476
Q 250 499 288 499
L 2566 499
L 2566 2464
Q 2566 2502 2588 2531
Q 2611 2560 2650 2560
L 2925 2560
Q 2957 2560 2982 2531
Q 3008 2502 3008 2464
L 3008 499
L 5728 499
z
M 998 4486
Q 998 4525 1030 4544
Q 1062 4563 1094 4563
L 4506 4563
Q 4659 4563 4752 4531
Q 4845 4499 4896 4438
Q 4947 4378 4966 4282
Q 4986 4186 4992 4051
Q 4998 3789 4992 3462
Q 4986 3136 4960 2784
Q 4934 2432 4889 2073
Q 4845 1715 4781 1389
Q 4774 1350 4748 1318
Q 4723 1286 4685 1293
L 4429 1312
Q 4320 1318 4352 1427
Q 4410 1677 4454 2038
Q 4499 2400 4528 2774
Q 4557 3149 4566 3491
Q 4576 3834 4557 4045
Q 4544 4134 4521 4156
Q 4499 4179 4410 4179
L 1094 4179
Q 1062 4179 1030 4201
Q 998 4224 998 4256
L 998 4486
z
" transform="scale(0.015625)"/>
       <path id="NanumGothic-c5f0" d="M 5152 864
Q 5152 774 5062 774
L 4800 774
Q 4710 774 4710 864
L 4710 2234
L 3270 2234
Q 3059 1978 2748 1834
Q 2438 1690 2067 1690
Q 1747 1690 1472 1798
Q 1197 1907 995 2108
Q 794 2310 675 2585
Q 557 2861 557 3200
Q 557 3552 675 3833
Q 794 4115 995 4313
Q 1197 4512 1472 4614
Q 1747 4717 2067 4717
Q 2458 4717 2800 4547
Q 3142 4378 3354 4058
L 4710 4058
L 4710 4915
Q 4710 5005 4800 5005
L 5062 5005
Q 5152 5005 5152 4915
L 5152 864
z
M 3155 3206
Q 3155 3475 3065 3683
Q 2976 3891 2825 4028
Q 2675 4166 2480 4236
Q 2285 4307 2067 4307
Q 1843 4307 1651 4236
Q 1459 4166 1315 4028
Q 1171 3891 1088 3683
Q 1005 3475 1005 3206
Q 1005 2950 1085 2745
Q 1165 2541 1305 2397
Q 1446 2253 1641 2173
Q 1837 2093 2067 2093
Q 2285 2093 2480 2173
Q 2675 2253 2825 2397
Q 2976 2541 3065 2745
Q 3155 2950 3155 3206
z
M 5344 -704
Q 5344 -742 5312 -761
Q 5280 -781 5248 -781
L 2042 -781
Q 1741 -781 1648 -669
Q 1555 -557 1555 -294
L 1555 960
Q 1555 1050 1645 1050
L 1907 1050
Q 1997 1050 1997 960
L 1997 -262
Q 1997 -352 2025 -374
Q 2054 -397 2144 -397
L 5248 -397
Q 5280 -397 5312 -419
Q 5344 -442 5344 -474
L 5344 -704
z
M 3603 3200
Q 3603 2880 3494 2611
L 4710 2611
L 4710 3680
L 3533 3680
Q 3603 3450 3603 3200
z
" transform="scale(0.015625)"/>
       <path id="NanumGothic-b3c4" d="M 5030 1984
Q 5030 1894 4947 1894
L 3213 1894
L 3213 499
L 5728 499
Q 5760 499 5792 476
Q 5824 454 5824 416
L 5824 198
Q 5824 166 5792 140
Q 5760 115 5728 115
L 288 115
Q 250 115 221 140
Q 192 166 192 198
L 192 416
Q 192 454 221 476
Q 250 499 288 499
L 2771 499
L 2771 1894
L 1491 1894
Q 1210 1894 1107 1987
Q 1005 2080 1005 2349
L 1005 4134
Q 1005 4403 1107 4496
Q 1210 4589 1491 4589
L 4902 4589
Q 4986 4589 4986 4506
L 4986 4294
Q 4986 4205 4902 4205
L 1600 4205
Q 1510 4205 1478 4166
Q 1446 4128 1446 4032
L 1446 2445
Q 1446 2355 1478 2316
Q 1510 2278 1600 2278
L 4947 2278
Q 5030 2278 5030 2195
L 5030 1984
z
" transform="scale(0.015625)"/>
      </defs>
      <use xlink:href="#NanumGothic-bcf4"/>
      <use xlink:href="#NanumGothic-ace0" transform="translate(93.999985 0)"/>
      <use xlink:href="#NanumGothic-c5f0" transform="translate(187.999969 0)"/>
      <use xlink:href="#NanumGothic-b3c4" transform="translate(281.999954 0)"/>
     </g>
    </g>
   </g>
   <g id="matplotlib.axis_2">
    <g id="ytick_1">
     <g id="line2d_7">
      <path d="M 61.00625 236.517842
L 504.14625 236.517842
" clip-path="url(#p12ecdc71e3)" style="fill: none; stroke: #b0b0b0; stroke-opacity: 0.25; stroke-width: 0.8; stroke-linecap: square"/>
     </g>
     <g id="line2d_8">
      <defs>
       <path id="m50af090bd7" d="M 0 0
L -3.5 0
" style="stroke: #000000; stroke-width: 0.8"/>
      </defs>
      <g>
       <use xlink:href="#m50af090bd7" x="61.00625" y="236.517842" style="stroke: #000000; stroke-width: 0.8"/>
      </g>
     </g>
     <g id="text_8">
      <!-- 0.0172 -->
      <g transform="translate(20.679688 240.277998) scale(0.1 -0.1)">
       <defs>
        <path id="NanumGothic-2e" d="M 691 -256
Q 691 -122 784 -29
Q 877 64 1011 64
Q 1146 64 1238 -29
Q 1331 -122 1331 -256
Q 1331 -390 1238 -483
Q 1146 -576 1011 -576
Q 877 -576 784 -483
Q 691 -390 691 -256
z
" transform="scale(0.015625)"/>
        <path id="NanumGothic-37" d="M 1549 -211
Q 1504 -301 1421 -301
L 1101 -301
Q 1062 -301 1046 -275
Q 1030 -250 1050 -211
L 2912 4083
L 538 4083
Q 448 4083 448 4173
L 448 4384
Q 448 4474 538 4474
L 3194 4474
Q 3328 4474 3350 4451
Q 3373 4429 3373 4294
L 3373 4134
Q 3373 4083 3354 4045
L 1549 -211
z
" transform="scale(0.015625)"/>
       </defs>
       <use xlink:href="#NanumGothic-30"/>
       <use xlink:href="#NanumGothic-2e" transform="translate(60.599991 0)"/>
       <use xlink:href="#NanumGothic-30" transform="translate(90.899979 0)"/>
       <use xlink:href="#NanumGothic-31" transform="translate(151.499969 0)"/>
       <use xlink:href="#NanumGothic-37" transform="translate(212.09996 0)"/>
       <use xlink:href="#NanumGothic-32" transform="translate(272.699951 0)"/>
      </g>
     </g>
    </g>
    <g id="ytick_2">
     <g id="line2d_9">
      <path d="M 61.00625 199.679985
L 504.14625 199.679985
" clip-path="url(#p12ecdc71e3)" style="fill: none; stroke: #b0b0b0; stroke-opacity: 0.25; stroke-width: 0.8; stroke-linecap: square"/>
     </g>
     <g id="line2d_10">
      <g>
       <use xlink:href="#m50af090bd7" x="61.00625" y="199.679985" style="stroke: #000000; stroke-width: 0.8"/>
      </g>
     </g>
     <g id="text_9">
      <!-- 0.0174 -->
      <g transform="translate(20.679688 203.440141) scale(0.1 -0.1)">
       <use xlink:href="#NanumGothic-30"/>
       <use xlink:href="#NanumGothic-2e" transform="translate(60.599991 0)"/>
       <use xlink:href="#NanumGothic-30" transform="translate(90.899979 0)"/>
       <use xlink:href="#NanumGothic-31" transform="translate(151.499969 0)"/>
       <use xlink:href="#NanumGothic-37" transform="translate(212.09996 0)"/>
       <use xlink:href="#NanumGothic-34" transform="translate(272.699951 0)"/>
      </g>
     </g>
    </g>
    <g id="ytick_3">
     <g id="line2d_11">
      <path d="M 61.00625 162.842128
L 504.14625 162.842128
" clip-path="url(#p12ecdc71e3)" style="fill: none; stroke: #b0b0b0; stroke-opacity: 0.25; stroke-width: 0.8; stroke-linecap: square"/>
     </g>
     <g id="line2d_12">
      <g>
       <use xlink:href="#m50af090bd7" x="61.00625" y="162.842128" style="stroke: #000000; stroke-width: 0.8"/>
      </g>
     </g>
     <g id="text_10">
      <!-- 0.0176 -->
      <g transform="translate(20.679688 166.602284) scale(0.1 -0.1)">
       <defs>
        <path id="NanumGothic-36" d="M 3078 1203
Q 3078 1722 2810 2022
Q 2541 2330 2042 2330
Q 1786 2330 1581 2250
Q 1376 2170 1232 2029
Q 1088 1888 1008 1689
Q 928 1491 928 1254
Q 928 768 1197 435
Q 1491 45 1984 45
Q 2490 45 2797 384
Q 3078 704 3078 1203
z
M 3245 4013
Q 3098 4064 2909 4096
Q 2720 4128 2534 4128
Q 1664 4128 1248 3501
Q 896 2976 883 2061
Q 1024 2317 1293 2496
Q 1626 2733 2042 2733
Q 2624 2733 3021 2426
Q 3526 2035 3526 1235
Q 3526 557 3110 109
Q 2688 -346 1971 -346
Q 435 -346 435 1920
Q 435 3104 909 3770
Q 1466 4525 2586 4525
Q 2752 4525 2934 4499
Q 3117 4474 3270 4429
Q 3366 4410 3354 4314
L 3341 4077
Q 3341 4032 3309 4016
Q 3277 4000 3245 4013
z
" transform="scale(0.015625)"/>
       </defs>
       <use xlink:href="#NanumGothic-30"/>
       <use xlink:href="#NanumGothic-2e" transform="translate(60.599991 0)"/>
       <use xlink:href="#NanumGothic-30" transform="translate(90.899979 0)"/>
       <use xlink:href="#NanumGothic-31" transform="translate(151.499969 0)"/>
       <use xlink:href="#NanumGothic-37" transform="translate(212.09996 0)"/>
       <use xlink:href="#NanumGothic-36" transform="translate(272.699951 0)"/>
      </g>
     </g>
    </g>
    <g id="ytick_4">
     <g id="line2d_13">
      <path d="M 61.00625 126.004271
L 504.14625 126.004271
" clip-path="url(#p12ecdc71e3)" style="fill: none; stroke: #b0b0b0; stroke-opacity: 0.25; stroke-width: 0.8; stroke-linecap: square"/>
     </g>
     <g id="line2d_14">
      <g>
       <use xlink:href="#m50af090bd7" x="61.00625" y="126.004271" style="stroke: #000000; stroke-width: 0.8"/>
      </g>
     </g>
     <g id="text_11">
      <!-- 0.0178 -->
      <g transform="translate(20.679688 129.764427) scale(0.1 -0.1)">
       <defs>
        <path id="NanumGothic-38" d="M 2944 3360
Q 2944 3725 2624 3936
Q 2342 4134 1965 4134
Q 1555 4134 1274 3930
Q 966 3725 966 3360
Q 966 3027 1286 2758
Q 1376 2675 1526 2579
Q 1677 2483 1882 2387
Q 1933 2362 1965 2365
Q 1997 2368 2061 2400
Q 2470 2624 2707 2870
Q 2944 3117 2944 3360
z
M 3104 960
Q 3104 1312 2784 1574
Q 2682 1658 2496 1760
Q 2310 1862 2042 1984
Q 1958 2029 1856 1984
Q 1606 1888 1414 1782
Q 1222 1677 1107 1587
Q 979 1459 899 1289
Q 819 1120 819 928
Q 819 538 1184 288
Q 1517 38 1965 38
Q 2426 38 2739 256
Q 3104 506 3104 960
z
M 3552 928
Q 3552 614 3421 364
Q 3290 115 3046 -51
Q 2835 -192 2560 -269
Q 2285 -346 1965 -346
Q 1651 -346 1379 -262
Q 1107 -179 883 -32
Q 640 141 505 387
Q 371 634 371 928
Q 371 1427 704 1741
Q 960 1984 1491 2182
Q 518 2662 518 3411
Q 518 3680 652 3888
Q 787 4096 1030 4262
Q 1235 4390 1468 4457
Q 1702 4525 1965 4525
Q 2272 4525 2515 4457
Q 2758 4390 2957 4256
Q 3398 3949 3398 3411
Q 3398 2746 2400 2182
Q 2662 2086 2870 1971
Q 3078 1856 3206 1741
Q 3552 1434 3552 928
z
" transform="scale(0.015625)"/>
       </defs>
       <use xlink:href="#NanumGothic-30"/>
       <use xlink:href="#NanumGothic-2e" transform="translate(60.599991 0)"/>
       <use xlink:href="#NanumGothic-30" transform="translate(90.899979 0)"/>
       <use xlink:href="#NanumGothic-31" transform="translate(151.499969 0)"/>
       <use xlink:href="#NanumGothic-37" transform="translate(212.09996 0)"/>
       <use xlink:href="#NanumGothic-38" transform="translate(272.699951 0)"/>
      </g>
     </g>
    </g>
    <g id="ytick_5">
     <g id="line2d_15">
      <path d="M 61.00625 89.166414
L 504.14625 89.166414
" clip-path="url(#p12ecdc71e3)" style="fill: none; stroke: #b0b0b0; stroke-opacity: 0.25; stroke-width: 0.8; stroke-linecap: square"/>
     </g>
     <g id="line2d_16">
      <g>
       <use xlink:href="#m50af090bd7" x="61.00625" y="89.166414" style="stroke: #000000; stroke-width: 0.8"/>
      </g>
     </g>
     <g id="text_12">
      <!-- 0.0180 -->
      <g transform="translate(20.679688 92.92657) scale(0.1 -0.1)">
       <use xlink:href="#NanumGothic-30"/>
       <use xlink:href="#NanumGothic-2e" transform="translate(60.599991 0)"/>
       <use xlink:href="#NanumGothic-30" transform="translate(90.899979 0)"/>
       <use xlink:href="#NanumGothic-31" transform="translate(151.499969 0)"/>
       <use xlink:href="#NanumGothic-38" transform="translate(212.09996 0)"/>
       <use xlink:href="#NanumGothic-30" transform="translate(272.699951 0)"/>
      </g>
     </g>
    </g>
    <g id="ytick_6">
     <g id="line2d_17">
      <path d="M 61.00625 52.328557
L 504.14625 52.328557
" clip-path="url(#p12ecdc71e3)" style="fill: none; stroke: #b0b0b0; stroke-opacity: 0.25; stroke-width: 0.8; stroke-linecap: square"/>
     </g>
     <g id="line2d_18">
      <g>
       <use xlink:href="#m50af090bd7" x="61.00625" y="52.328557" style="stroke: #000000; stroke-width: 0.8"/>
      </g>
     </g>
     <g id="text_13">
      <!-- 0.0182 -->
      <g transform="translate(20.679688 56.088713) scale(0.1 -0.1)">
       <use xlink:href="#NanumGothic-30"/>
       <use xlink:href="#NanumGothic-2e" transform="translate(60.599991 0)"/>
       <use xlink:href="#NanumGothic-30" transform="translate(90.899979 0)"/>
       <use xlink:href="#NanumGothic-31" transform="translate(151.499969 0)"/>
       <use xlink:href="#NanumGothic-38" transform="translate(212.09996 0)"/>
       <use xlink:href="#NanumGothic-32" transform="translate(272.699951 0)"/>
      </g>
     </g>
    </g>
    <g id="text_14">
     <!-- 유효 token 비율 -->
     <g transform="translate(14.720313 182.083594) rotate(-90) scale(0.1 -0.1)">
      <defs>
       <path id="NanumGothic-c720" d="M 2995 2387
Q 2669 2387 2307 2457
Q 1946 2528 1642 2678
Q 1338 2829 1142 3072
Q 947 3315 947 3661
Q 947 4006 1142 4249
Q 1338 4493 1642 4643
Q 1946 4794 2307 4861
Q 2669 4928 2995 4928
Q 3328 4928 3693 4861
Q 4058 4794 4355 4643
Q 4653 4493 4848 4249
Q 5043 4006 5043 3661
Q 5043 3315 4848 3072
Q 4653 2829 4355 2678
Q 4058 2528 3693 2457
Q 3328 2387 2995 2387
z
M 2995 4525
Q 2771 4525 2499 4489
Q 2227 4454 1987 4358
Q 1747 4262 1584 4092
Q 1421 3923 1421 3654
Q 1421 3386 1584 3219
Q 1747 3053 1987 2957
Q 2227 2861 2499 2825
Q 2771 2790 2995 2790
Q 3213 2790 3485 2825
Q 3757 2861 3997 2957
Q 4237 3053 4403 3219
Q 4570 3386 4570 3654
Q 4570 3923 4403 4092
Q 4237 4262 3997 4358
Q 3757 4454 3485 4489
Q 3213 4525 2995 4525
z
M 1850 -858
Q 1818 -858 1792 -829
Q 1766 -800 1766 -762
L 1766 1312
L 288 1312
Q 250 1312 221 1337
Q 192 1363 192 1395
L 192 1613
Q 192 1651 221 1673
Q 250 1696 288 1696
L 5728 1696
Q 5760 1696 5792 1673
Q 5824 1651 5824 1613
L 5824 1395
Q 5824 1363 5792 1337
Q 5760 1312 5728 1312
L 4192 1312
L 4192 -762
Q 4192 -800 4169 -829
Q 4147 -858 4109 -858
L 3834 -858
Q 3802 -858 3776 -829
Q 3750 -800 3750 -762
L 3750 1312
L 2208 1312
L 2208 -762
Q 2208 -800 2185 -829
Q 2163 -858 2125 -858
L 1850 -858
z
" transform="scale(0.015625)"/>
       <path id="NanumGothic-d6a8" d="M 4685 2419
Q 4685 2189 4566 2000
Q 4448 1811 4227 1670
Q 4006 1530 3692 1453
Q 3379 1376 2989 1376
Q 2598 1376 2284 1453
Q 1971 1530 1750 1670
Q 1530 1811 1411 2003
Q 1293 2195 1293 2419
Q 1293 2650 1411 2842
Q 1530 3034 1750 3168
Q 1971 3302 2284 3379
Q 2598 3456 2989 3456
Q 3379 3456 3692 3379
Q 4006 3302 4227 3164
Q 4448 3027 4566 2835
Q 4685 2643 4685 2419
z
M 4243 1331
Q 4275 1331 4300 1302
Q 4326 1274 4326 1235
L 4326 499
L 5728 499
Q 5760 499 5792 476
Q 5824 454 5824 416
L 5824 198
Q 5824 166 5792 140
Q 5760 115 5728 115
L 288 115
Q 250 115 221 140
Q 192 166 192 198
L 192 416
Q 192 454 221 476
Q 250 499 288 499
L 1670 499
L 1670 1235
Q 1670 1274 1692 1302
Q 1715 1331 1754 1331
L 2022 1331
Q 2054 1331 2080 1302
Q 2106 1274 2106 1235
L 2106 499
L 3891 499
L 3891 1235
Q 3891 1274 3913 1302
Q 3936 1331 3974 1331
L 4243 1331
z
M 4186 2419
Q 4186 2726 3869 2899
Q 3552 3072 2989 3072
Q 2426 3072 2106 2899
Q 1786 2726 1786 2419
Q 1786 2118 2106 1939
Q 2426 1760 2989 1760
Q 3552 1760 3869 1939
Q 4186 2118 4186 2419
z
M 5306 3802
Q 5306 3718 5210 3718
L 781 3718
Q 749 3718 720 3744
Q 691 3770 691 3808
L 691 4013
Q 691 4051 720 4076
Q 749 4102 781 4102
L 5210 4102
Q 5306 4102 5306 4019
L 5306 3802
z
M 3795 4877
Q 3891 4877 3891 4787
L 3891 4589
Q 3891 4493 3795 4493
L 2150 4493
Q 2054 4493 2054 4589
L 2054 4787
Q 2054 4877 2150 4877
L 3795 4877
z
" transform="scale(0.015625)"/>
       <path id="NanumGothic-20" transform="scale(0.015625)"/>
       <path id="NanumGothic-74" d="M 2208 -282
Q 1939 -378 1677 -378
Q 1158 -378 992 -38
Q 883 192 883 774
L 883 2816
L 282 2816
Q 192 2816 192 2906
L 192 3098
Q 192 3187 282 3187
L 883 3187
L 883 4051
Q 883 4147 966 4147
L 1235 4147
Q 1318 4147 1318 4051
L 1318 3187
L 2029 3187
Q 2118 3187 2118 3098
L 2118 2906
Q 2118 2816 2029 2816
L 1318 2816
L 1318 557
Q 1318 -13 1779 -13
Q 1958 -13 2182 64
Q 2214 77 2243 64
Q 2272 51 2272 13
L 2285 -154
Q 2298 -243 2208 -282
z
" transform="scale(0.015625)"/>
       <path id="NanumGothic-6f" d="M 3130 1453
Q 3130 1754 3050 2016
Q 2970 2278 2829 2483
Q 2496 2893 1965 2893
Q 1696 2893 1481 2787
Q 1267 2682 1101 2483
Q 954 2278 874 2016
Q 794 1754 794 1453
Q 794 1146 874 883
Q 954 621 1101 422
Q 1440 6 1965 6
Q 2234 6 2448 115
Q 2662 224 2829 422
Q 2970 621 3050 883
Q 3130 1146 3130 1453
z
M 3603 1453
Q 3603 1075 3494 752
Q 3386 429 3206 186
Q 2982 -83 2672 -230
Q 2362 -378 1965 -378
Q 1568 -378 1254 -230
Q 941 -83 717 186
Q 538 429 432 752
Q 326 1075 326 1453
Q 326 2227 717 2720
Q 1165 3277 1965 3277
Q 2368 3277 2675 3139
Q 2982 3002 3206 2720
Q 3603 2214 3603 1453
z
" transform="scale(0.015625)"/>
       <path id="NanumGothic-6b" d="M 1734 1645
L 3117 -186
Q 3136 -218 3129 -246
Q 3123 -275 3085 -275
L 2810 -275
Q 2746 -275 2694 -256
Q 2643 -237 2611 -186
L 1459 1338
L 1030 858
L 1030 -186
Q 1030 -275 941 -275
L 685 -275
Q 595 -275 595 -186
L 595 4730
Q 595 4819 685 4819
L 941 4819
Q 1030 4819 1030 4730
L 1030 1395
L 2490 3098
Q 2579 3187 2701 3187
L 3002 3187
Q 3040 3187 3053 3158
Q 3066 3130 3034 3098
L 1734 1645
z
" transform="scale(0.015625)"/>
       <path id="NanumGothic-65" d="M 2733 1696
Q 2733 1958 2681 2163
Q 2630 2368 2522 2534
Q 2285 2912 1837 2912
Q 1376 2912 1088 2528
Q 973 2355 896 2131
Q 819 1907 813 1696
L 2733 1696
z
M 813 1331
Q 806 1011 886 764
Q 966 518 1120 352
Q 1274 186 1488 96
Q 1702 6 1965 6
Q 2221 6 2445 54
Q 2669 102 2861 211
Q 2944 250 2944 166
L 2944 -122
Q 2944 -179 2874 -211
Q 2662 -294 2432 -336
Q 2202 -378 1933 -378
Q 1146 -378 742 80
Q 339 538 339 1459
Q 339 2272 742 2771
Q 1165 3277 1811 3277
Q 2170 3277 2432 3149
Q 2694 3021 2880 2765
Q 3206 2310 3206 1549
Q 3206 1466 3203 1421
Q 3200 1376 3181 1357
Q 3162 1338 3114 1334
Q 3066 1331 2976 1331
L 813 1331
z
" transform="scale(0.015625)"/>
       <path id="NanumGothic-6e" d="M 3334 -186
Q 3334 -275 3245 -275
L 2989 -275
Q 2899 -275 2899 -186
L 2899 1830
Q 2899 2419 2688 2665
Q 2477 2912 2093 2912
Q 1574 2912 1302 2624
Q 1030 2336 1030 1818
L 1030 -186
Q 1030 -275 941 -275
L 685 -275
Q 595 -275 595 -186
L 595 2374
Q 595 2650 592 2803
Q 589 2957 576 3098
Q 570 3142 598 3164
Q 627 3187 666 3187
L 896 3187
Q 986 3187 986 3098
L 986 2746
Q 1165 3021 1417 3149
Q 1670 3277 2112 3277
Q 2720 3277 3027 2925
Q 3334 2573 3334 1933
L 3334 -186
z
" transform="scale(0.015625)"/>
       <path id="NanumGothic-be44" d="M 5158 -806
Q 5158 -896 5069 -896
L 4806 -896
Q 4717 -896 4717 -806
L 4717 4915
Q 4717 5005 4806 5005
L 5069 5005
Q 5158 5005 5158 4915
L 5158 -806
z
M 1178 781
Q 1024 781 931 800
Q 838 819 787 873
Q 736 928 717 1014
Q 698 1101 698 1235
L 698 4602
Q 698 4634 723 4656
Q 749 4678 781 4678
L 1056 4678
Q 1088 4678 1110 4652
Q 1133 4627 1133 4602
L 1133 3117
L 3117 3117
L 3117 4595
Q 3117 4627 3139 4652
Q 3162 4678 3194 4678
L 3469 4678
Q 3501 4678 3526 4656
Q 3552 4634 3552 4602
L 3552 1190
Q 3552 947 3449 864
Q 3347 781 3066 781
L 1178 781
z
M 1133 2739
L 1133 1312
Q 1133 1216 1165 1187
Q 1197 1158 1286 1158
L 2963 1158
Q 3053 1158 3085 1187
Q 3117 1216 3117 1312
L 3117 2739
L 1133 2739
z
" transform="scale(0.015625)"/>
       <path id="NanumGothic-c728" d="M 5075 -781
Q 5075 -813 5046 -835
Q 5018 -858 4992 -858
L 1549 -858
Q 1248 -858 1155 -746
Q 1062 -634 1062 -365
L 1062 32
Q 1062 301 1174 393
Q 1286 486 1574 486
L 4365 486
Q 4454 486 4480 512
Q 4506 538 4506 634
L 4506 928
Q 4506 1024 4483 1049
Q 4461 1075 4371 1075
L 1139 1075
Q 1107 1075 1078 1094
Q 1050 1114 1050 1146
L 1050 1370
Q 1050 1402 1078 1421
Q 1107 1440 1139 1440
L 1786 1440
L 1786 2106
L 288 2106
Q 250 2106 221 2131
Q 192 2157 192 2189
L 192 2406
Q 192 2445 221 2467
Q 250 2490 288 2490
L 5728 2490
Q 5760 2490 5792 2467
Q 5824 2445 5824 2406
L 5824 2189
Q 5824 2157 5792 2131
Q 5760 2106 5728 2106
L 4192 2106
L 4192 1440
L 4435 1440
Q 4589 1440 4685 1417
Q 4781 1395 4838 1344
Q 4896 1293 4918 1200
Q 4941 1107 4941 973
L 4941 576
Q 4941 307 4829 214
Q 4717 122 4429 122
L 1632 122
Q 1542 122 1520 96
Q 1498 70 1498 -26
L 1498 -339
Q 1498 -429 1523 -457
Q 1549 -486 1638 -486
L 4986 -486
Q 5018 -486 5046 -505
Q 5075 -525 5075 -557
L 5075 -781
z
M 3002 2874
Q 2701 2874 2355 2918
Q 2010 2963 1715 3088
Q 1421 3213 1229 3424
Q 1037 3635 1037 3974
Q 1037 4307 1229 4518
Q 1421 4730 1715 4851
Q 2010 4973 2355 5021
Q 2701 5069 3002 5069
Q 3315 5069 3660 5024
Q 4006 4979 4297 4857
Q 4589 4736 4777 4521
Q 4966 4307 4966 3974
Q 4966 3635 4774 3424
Q 4582 3213 4291 3088
Q 4000 2963 3654 2918
Q 3309 2874 3002 2874
z
M 3002 4678
Q 2790 4678 2528 4652
Q 2266 4627 2035 4550
Q 1805 4474 1648 4333
Q 1491 4192 1491 3968
Q 1491 3744 1648 3606
Q 1805 3469 2035 3392
Q 2266 3315 2528 3289
Q 2790 3264 3002 3264
Q 3206 3264 3468 3289
Q 3731 3315 3961 3392
Q 4192 3469 4352 3606
Q 4512 3744 4512 3968
Q 4512 4192 4352 4333
Q 4192 4474 3961 4550
Q 3731 4627 3468 4652
Q 3206 4678 3002 4678
z
M 2227 1440
L 3750 1440
L 3750 2106
L 2227 2106
L 2227 1440
z
" transform="scale(0.015625)"/>
      </defs>
      <use xlink:href="#NanumGothic-c720"/>
      <use xlink:href="#NanumGothic-d6a8" transform="translate(93.999985 0)"/>
      <use xlink:href="#NanumGothic-20" transform="translate(187.999969 0)"/>
      <use xlink:href="#NanumGothic-74" transform="translate(215.999954 0)"/>
      <use xlink:href="#NanumGothic-6f" transform="translate(252.299942 0)"/>
      <use xlink:href="#NanumGothic-6b" transform="translate(312.899933 0)"/>
      <use xlink:href="#NanumGothic-65" transform="translate(364.899918 0)"/>
      <use xlink:href="#NanumGothic-6e" transform="translate(419.399902 0)"/>
      <use xlink:href="#NanumGothic-20" transform="translate(479.999893 0)"/>
      <use xlink:href="#NanumGothic-be44" transform="translate(507.999878 0)"/>
      <use xlink:href="#NanumGothic-c728" transform="translate(601.999863 0)"/>
     </g>
    </g>
   </g>
   <g id="line2d_19">
    <path d="M 81.148977 260.975284
L 161.719886 206.771719
L 242.290795 190.046463
L 322.861705 131.829071
L 403.432614 90.879352
L 484.003523 33.593466
" clip-path="url(#p12ecdc71e3)" style="fill: none; stroke: #1f77b4; stroke-width: 1.5; stroke-linecap: square"/>
    <defs>
     <path id="m8fbb0940a7" d="M 0 3
C 0.795609 3 1.55874 2.683901 2.12132 2.12132
C 2.683901 1.55874 3 0.795609 3 0
C 3 -0.795609 2.683901 -1.55874 2.12132 -2.12132
C 1.55874 -2.683901 0.795609 -3 0 -3
C -0.795609 -3 -1.55874 -2.683901 -2.12132 -2.12132
C -2.683901 -1.55874 -3 -0.795609 -3 0
C -3 0.795609 -2.683901 1.55874 -2.12132 2.12132
C -1.55874 2.683901 -0.795609 3 0 3
z
" style="stroke: #1f77b4"/>
    </defs>
    <g clip-path="url(#p12ecdc71e3)">
     <use xlink:href="#m8fbb0940a7" x="81.148977" y="260.975284" style="fill: #1f77b4; stroke: #1f77b4"/>
     <use xlink:href="#m8fbb0940a7" x="161.719886" y="206.771719" style="fill: #1f77b4; stroke: #1f77b4"/>
     <use xlink:href="#m8fbb0940a7" x="242.290795" y="190.046463" style="fill: #1f77b4; stroke: #1f77b4"/>
     <use xlink:href="#m8fbb0940a7" x="322.861705" y="131.829071" style="fill: #1f77b4; stroke: #1f77b4"/>
     <use xlink:href="#m8fbb0940a7" x="403.432614" y="90.879352" style="fill: #1f77b4; stroke: #1f77b4"/>
     <use xlink:href="#m8fbb0940a7" x="484.003523" y="33.593466" style="fill: #1f77b4; stroke: #1f77b4"/>
    </g>
   </g>
   <g id="patch_3">
    <path d="M 61.00625 272.344375
L 61.00625 22.224375
" style="fill: none; stroke: #000000; stroke-width: 0.8; stroke-linejoin: miter; stroke-linecap: square"/>
   </g>
   <g id="patch_4">
    <path d="M 504.14625 272.344375
L 504.14625 22.224375
" style="fill: none; stroke: #000000; stroke-width: 0.8; stroke-linejoin: miter; stroke-linecap: square"/>
   </g>
   <g id="patch_5">
    <path d="M 61.00625 272.344375
L 504.14625 272.344375
" style="fill: none; stroke: #000000; stroke-width: 0.8; stroke-linejoin: miter; stroke-linecap: square"/>
   </g>
   <g id="patch_6">
    <path d="M 61.00625 22.224375
L 504.14625 22.224375
" style="fill: none; stroke: #000000; stroke-width: 0.8; stroke-linejoin: miter; stroke-linecap: square"/>
   </g>
   <g id="text_15">
    <!-- 연도별 전체 보고서 불확실성 -->
    <g transform="translate(209.85625 16.224375) scale(0.12 -0.12)">
     <defs>
      <path id="NanumGothic-bcc4" d="M 1190 2106
Q 1037 2106 944 2125
Q 851 2144 800 2198
Q 749 2253 729 2339
Q 710 2426 710 2560
L 710 4838
Q 710 4870 736 4892
Q 762 4915 794 4915
L 1069 4915
Q 1101 4915 1123 4889
Q 1146 4864 1146 4838
L 1146 3821
L 3014 3821
L 3014 4832
Q 3014 4864 3036 4889
Q 3059 4915 3091 4915
L 3366 4915
Q 3398 4915 3424 4892
Q 3450 4870 3450 4838
L 3450 4102
L 4710 4102
L 4710 4915
Q 4710 5005 4800 5005
L 5062 5005
Q 5152 5005 5152 4915
L 5152 1997
Q 5152 1907 5062 1907
L 4800 1907
Q 4710 1907 4710 1997
L 4710 2688
L 3450 2688
L 3450 2515
Q 3450 2272 3347 2189
Q 3245 2106 2963 2106
L 1190 2106
z
M 5286 -838
Q 5286 -870 5257 -892
Q 5229 -915 5203 -915
L 1978 -915
Q 1677 -915 1584 -803
Q 1491 -691 1491 -422
L 1491 58
Q 1491 326 1603 419
Q 1715 512 2003 512
L 4570 512
Q 4659 512 4684 537
Q 4710 563 4710 659
L 4710 1024
Q 4710 1120 4688 1145
Q 4666 1171 4576 1171
L 1568 1171
Q 1536 1171 1507 1190
Q 1478 1210 1478 1242
L 1478 1472
Q 1478 1504 1507 1523
Q 1536 1542 1568 1542
L 4646 1542
Q 4800 1542 4896 1520
Q 4992 1498 5049 1446
Q 5107 1395 5129 1302
Q 5152 1210 5152 1075
L 5152 595
Q 5152 326 5040 233
Q 4928 141 4640 141
L 2074 141
Q 1984 141 1961 115
Q 1939 90 1939 -6
L 1939 -397
Q 1939 -486 1964 -515
Q 1990 -544 2080 -544
L 5197 -544
Q 5229 -544 5257 -563
Q 5286 -582 5286 -614
L 5286 -838
z
M 1146 3443
L 1146 2637
Q 1146 2541 1178 2512
Q 1210 2483 1299 2483
L 2861 2483
Q 2950 2483 2982 2512
Q 3014 2541 3014 2637
L 3014 3443
L 1146 3443
z
M 3450 3066
L 4710 3066
L 4710 3725
L 3450 3725
L 3450 3066
z
" transform="scale(0.015625)"/>
      <path id="NanumGothic-c804" d="M 3309 4038
Q 3219 3770 3052 3494
Q 2886 3219 2662 2950
Q 2918 2650 3254 2384
Q 3590 2118 3917 1946
Q 4000 1907 3955 1824
L 3808 1606
Q 3789 1574 3750 1571
Q 3712 1568 3680 1587
Q 3354 1766 3018 2048
Q 2682 2330 2394 2643
Q 2029 2259 1593 1939
Q 1158 1619 717 1414
Q 685 1402 653 1392
Q 621 1382 602 1414
L 474 1638
Q 454 1670 467 1705
Q 480 1741 512 1754
Q 1267 2138 1865 2707
Q 2464 3277 2822 4013
Q 2867 4102 2835 4140
Q 2803 4179 2714 4179
L 838 4179
Q 762 4179 762 4262
L 762 4486
Q 762 4563 838 4563
L 2886 4563
Q 3219 4563 3315 4444
Q 3411 4326 3309 4038
z
M 4710 3296
L 4710 4915
Q 4710 5005 4800 5005
L 5062 5005
Q 5152 5005 5152 4915
L 5152 781
Q 5152 691 5062 691
L 4800 691
Q 4710 691 4710 781
L 4710 2925
L 3501 2925
Q 3418 2925 3418 3002
L 3418 3219
Q 3418 3296 3501 3296
L 4710 3296
z
M 5350 -704
Q 5350 -742 5318 -761
Q 5286 -781 5254 -781
L 2016 -781
Q 1715 -781 1622 -669
Q 1530 -557 1530 -294
L 1530 922
Q 1530 1011 1619 1011
L 1882 1011
Q 1971 1011 1971 922
L 1971 -262
Q 1971 -352 2000 -374
Q 2029 -397 2118 -397
L 5254 -397
Q 5286 -397 5318 -419
Q 5350 -442 5350 -474
L 5350 -704
z
" transform="scale(0.015625)"/>
      <path id="NanumGothic-ccb4" d="M 2835 3213
Q 2726 2925 2582 2653
Q 2438 2381 2259 2125
Q 2509 1798 2800 1520
Q 3091 1242 3379 1056
Q 3450 1005 3386 934
L 3226 730
Q 3194 691 3168 691
Q 3142 691 3091 730
Q 2963 826 2822 947
Q 2682 1069 2541 1209
Q 2400 1350 2262 1500
Q 2125 1651 2003 1798
Q 1715 1453 1376 1158
Q 1037 864 666 634
Q 640 614 605 614
Q 570 614 557 627
L 397 832
Q 378 864 390 899
Q 403 934 429 954
Q 774 1171 1078 1443
Q 1382 1715 1632 2006
Q 1882 2298 2064 2598
Q 2246 2899 2349 3187
Q 2413 3354 2240 3354
L 685 3354
Q 608 3354 608 3437
L 608 3661
Q 608 3738 698 3738
L 2413 3738
Q 2746 3738 2845 3619
Q 2944 3501 2835 3213
z
M 3808 2502
L 3808 4806
Q 3808 4896 3898 4896
L 4141 4896
Q 4230 4896 4230 4806
L 4230 -563
Q 4230 -653 4141 -653
L 3898 -653
Q 3808 -653 3808 -563
L 3808 2118
L 3021 2118
Q 2982 2118 2953 2144
Q 2925 2170 2925 2202
L 2925 2419
Q 2925 2458 2953 2480
Q 2982 2502 3021 2502
L 3808 2502
z
M 5363 -806
Q 5363 -896 5274 -896
L 5030 -896
Q 4941 -896 4941 -806
L 4941 4915
Q 4941 5005 5030 5005
L 5274 5005
Q 5363 5005 5363 4915
L 5363 -806
z
M 2381 4659
Q 2477 4659 2477 4570
L 2477 4365
Q 2477 4269 2381 4269
L 1184 4269
Q 1088 4269 1088 4365
L 1088 4570
Q 1088 4659 1184 4659
L 2381 4659
z
" transform="scale(0.015625)"/>
      <path id="NanumGothic-c11c" d="M 5152 -806
Q 5152 -896 5062 -896
L 4800 -896
Q 4710 -896 4710 -806
L 4710 2534
L 3309 2534
Q 3226 2534 3226 2611
L 3226 2842
Q 3226 2918 3309 2918
L 4710 2918
L 4710 4915
Q 4710 5005 4800 5005
L 5062 5005
Q 5152 5005 5152 4915
L 5152 -806
z
M 2323 4589
Q 2323 4166 2288 3779
Q 2253 3392 2176 3034
Q 2240 2778 2374 2493
Q 2509 2208 2691 1926
Q 2874 1645 3101 1379
Q 3328 1114 3584 902
Q 3616 877 3619 838
Q 3622 800 3603 774
L 3443 576
Q 3386 506 3309 576
Q 3130 730 2941 944
Q 2752 1158 2576 1395
Q 2400 1632 2246 1881
Q 2093 2131 1984 2362
Q 1779 1779 1446 1289
Q 1114 800 653 378
Q 589 326 544 371
L 352 570
Q 333 589 336 621
Q 339 653 371 685
Q 762 1056 1050 1465
Q 1338 1875 1520 2348
Q 1702 2822 1788 3379
Q 1875 3936 1875 4602
Q 1875 4646 1897 4668
Q 1920 4691 1952 4691
L 2253 4678
Q 2323 4678 2323 4589
z
" transform="scale(0.015625)"/>
      <path id="NanumGothic-bd88" d="M 5062 -781
Q 5062 -813 5033 -835
Q 5005 -858 4979 -858
L 1568 -858
Q 1267 -858 1174 -746
Q 1082 -634 1082 -365
L 1082 13
Q 1082 282 1194 374
Q 1306 467 1594 467
L 4346 467
Q 4435 467 4460 492
Q 4486 518 4486 614
L 4486 890
Q 4486 986 4464 1011
Q 4442 1037 4352 1037
L 1158 1037
Q 1126 1037 1097 1056
Q 1069 1075 1069 1107
L 1069 1331
Q 1069 1363 1097 1382
Q 1126 1402 1158 1402
L 2778 1402
L 2778 2054
L 288 2054
Q 250 2054 221 2080
Q 192 2106 192 2138
L 192 2355
Q 192 2394 221 2416
Q 250 2438 288 2438
L 5728 2438
Q 5760 2438 5792 2416
Q 5824 2394 5824 2355
L 5824 2138
Q 5824 2106 5792 2080
Q 5760 2054 5728 2054
L 3219 2054
L 3219 1402
L 4416 1402
Q 4570 1402 4666 1379
Q 4762 1357 4819 1305
Q 4877 1254 4899 1161
Q 4922 1069 4922 934
L 4922 557
Q 4922 288 4810 195
Q 4698 102 4410 102
L 1651 102
Q 1562 102 1539 76
Q 1517 51 1517 -45
L 1517 -339
Q 1517 -429 1542 -457
Q 1568 -486 1658 -486
L 4973 -486
Q 5005 -486 5033 -505
Q 5062 -525 5062 -557
L 5062 -781
z
M 1600 2963
Q 1446 2963 1353 2982
Q 1261 3002 1209 3056
Q 1158 3110 1139 3196
Q 1120 3283 1120 3418
L 1120 4966
Q 1120 4998 1145 5020
Q 1171 5043 1203 5043
L 1478 5043
Q 1510 5043 1532 5017
Q 1555 4992 1555 4966
L 1555 4410
L 4461 4410
L 4461 4960
Q 4461 4992 4483 5017
Q 4506 5043 4538 5043
L 4813 5043
Q 4845 5043 4870 5020
Q 4896 4998 4896 4966
L 4896 3373
Q 4896 3130 4793 3046
Q 4691 2963 4410 2963
L 1600 2963
z
M 1555 4032
L 1555 3494
Q 1555 3398 1587 3369
Q 1619 3341 1709 3341
L 4307 3341
Q 4397 3341 4429 3369
Q 4461 3398 4461 3494
L 4461 4032
L 1555 4032
z
" transform="scale(0.015625)"/>
      <path id="NanumGothic-d655" d="M 4096 1747
Q 4154 1754 4170 1738
Q 4186 1722 4192 1690
L 4218 1485
Q 4224 1446 4208 1427
Q 4192 1408 4134 1395
Q 3616 1325 2979 1280
Q 2342 1235 1702 1235
L 371 1235
Q 333 1235 304 1260
Q 275 1286 275 1318
L 275 1510
Q 275 1549 304 1568
Q 333 1587 371 1587
L 1478 1587
Q 1613 1587 1750 1587
Q 1888 1587 2022 1594
L 2022 2029
Q 1760 2048 1545 2115
Q 1331 2182 1174 2288
Q 1018 2394 931 2534
Q 845 2675 845 2842
Q 845 3027 950 3177
Q 1056 3328 1241 3433
Q 1427 3539 1680 3596
Q 1933 3654 2234 3654
Q 2528 3654 2784 3593
Q 3040 3533 3225 3427
Q 3411 3322 3516 3171
Q 3622 3021 3622 2842
Q 3622 2675 3536 2534
Q 3450 2394 3296 2288
Q 3142 2182 2928 2115
Q 2714 2048 2464 2029
L 2464 1606
Q 2874 1626 3274 1661
Q 3674 1696 4096 1747
z
M 4928 1210
Q 4928 1120 4838 1120
L 4576 1120
Q 4486 1120 4486 1210
L 4486 4915
Q 4486 5005 4576 5005
L 4838 5005
Q 4928 5005 4928 4915
L 4928 2938
L 5811 2938
Q 5850 2938 5878 2915
Q 5907 2893 5907 2854
L 5907 2637
Q 5907 2605 5878 2579
Q 5850 2554 5811 2554
L 4928 2554
L 4928 1210
z
M 1075 723
Q 1075 762 1107 781
Q 1139 800 1171 800
L 4442 800
Q 4742 800 4835 688
Q 4928 576 4928 314
L 4928 -870
Q 4928 -960 4838 -960
L 4576 -960
Q 4486 -960 4486 -870
L 4486 282
Q 4486 371 4457 393
Q 4429 416 4339 416
L 1171 416
Q 1139 416 1107 438
Q 1075 461 1075 493
L 1075 723
z
M 3187 2842
Q 3187 3066 2918 3184
Q 2650 3302 2234 3302
Q 2029 3302 1853 3273
Q 1677 3245 1549 3187
Q 1421 3130 1347 3043
Q 1274 2957 1274 2842
Q 1274 2733 1347 2646
Q 1421 2560 1549 2499
Q 1677 2438 1853 2406
Q 2029 2374 2234 2374
Q 2650 2374 2918 2499
Q 3187 2624 3187 2842
z
M 3981 3955
Q 3981 3872 3885 3872
L 608 3872
Q 576 3872 547 3897
Q 518 3923 518 3962
L 518 4147
Q 518 4186 547 4211
Q 576 4237 608 4237
L 3885 4237
Q 3981 4237 3981 4154
L 3981 3955
z
M 3046 4627
Q 3046 4538 2950 4538
L 1453 4538
Q 1421 4538 1392 4560
Q 1363 4582 1363 4621
L 1363 4813
Q 1363 4851 1388 4876
Q 1414 4902 1446 4902
L 2950 4902
Q 3046 4902 3046 4813
L 3046 4627
z
" transform="scale(0.015625)"/>
      <path id="NanumGothic-c2e4" d="M 5286 -838
Q 5286 -870 5257 -892
Q 5229 -915 5203 -915
L 1984 -915
Q 1683 -915 1590 -803
Q 1498 -691 1498 -422
L 1498 58
Q 1498 326 1610 419
Q 1722 512 2010 512
L 4570 512
Q 4659 512 4684 537
Q 4710 563 4710 659
L 4710 1024
Q 4710 1120 4688 1145
Q 4666 1171 4576 1171
L 1574 1171
Q 1542 1171 1513 1190
Q 1485 1210 1485 1242
L 1485 1472
Q 1485 1504 1513 1523
Q 1542 1542 1574 1542
L 4646 1542
Q 4800 1542 4896 1520
Q 4992 1498 5049 1446
Q 5107 1395 5129 1302
Q 5152 1210 5152 1075
L 5152 595
Q 5152 326 5040 233
Q 4928 141 4640 141
L 2074 141
Q 1984 141 1961 115
Q 1939 90 1939 -6
L 1939 -397
Q 1939 -486 1964 -515
Q 1990 -544 2080 -544
L 5197 -544
Q 5229 -544 5257 -563
Q 5286 -582 5286 -614
L 5286 -838
z
M 2355 4806
Q 2349 4358 2240 3974
Q 2323 3763 2470 3552
Q 2618 3341 2806 3155
Q 2995 2970 3216 2819
Q 3437 2669 3667 2573
Q 3706 2560 3706 2525
Q 3706 2490 3693 2464
L 3571 2246
Q 3552 2208 3517 2205
Q 3482 2202 3443 2214
Q 3238 2304 3033 2441
Q 2829 2579 2640 2748
Q 2451 2918 2294 3100
Q 2138 3283 2035 3462
Q 1830 3078 1500 2742
Q 1171 2406 691 2099
Q 646 2067 617 2064
Q 589 2061 557 2099
L 397 2298
Q 346 2368 429 2426
Q 826 2675 1107 2940
Q 1389 3206 1565 3497
Q 1741 3789 1824 4115
Q 1907 4442 1907 4813
Q 1907 4864 1932 4889
Q 1958 4915 1984 4915
L 2285 4896
Q 2355 4896 2355 4806
z
M 5152 2003
Q 5152 1914 5062 1914
L 4800 1914
Q 4710 1914 4710 2003
L 4710 4915
Q 4710 5005 4800 5005
L 5062 5005
Q 5152 5005 5152 4915
L 5152 2003
z
" transform="scale(0.015625)"/>
      <path id="NanumGothic-c131" d="M 5203 250
Q 5203 -26 5056 -243
Q 4909 -461 4656 -611
Q 4403 -762 4067 -842
Q 3731 -922 3347 -922
Q 2931 -922 2592 -842
Q 2253 -762 2009 -611
Q 1766 -461 1632 -243
Q 1498 -26 1498 250
Q 1498 518 1632 732
Q 1766 947 2009 1097
Q 2253 1248 2592 1328
Q 2931 1408 3347 1408
Q 3731 1408 4067 1328
Q 4403 1248 4656 1101
Q 4909 954 5056 739
Q 5203 525 5203 250
z
M 4749 230
Q 4749 422 4633 569
Q 4518 717 4323 816
Q 4128 915 3872 969
Q 3616 1024 3341 1024
Q 3034 1024 2778 969
Q 2522 915 2339 816
Q 2157 717 2054 569
Q 1952 422 1952 230
Q 1952 45 2054 -99
Q 2157 -243 2339 -339
Q 2522 -435 2778 -486
Q 3034 -538 3341 -538
Q 3616 -538 3872 -486
Q 4128 -435 4323 -339
Q 4518 -243 4633 -99
Q 4749 45 4749 230
z
M 2387 4774
Q 2387 4307 2291 3904
Q 2368 3635 2505 3392
Q 2643 3149 2828 2937
Q 3014 2726 3235 2556
Q 3456 2387 3699 2272
Q 3738 2253 3734 2217
Q 3731 2182 3718 2157
L 3584 1946
Q 3565 1914 3539 1901
Q 3514 1888 3456 1920
Q 3309 1997 3120 2128
Q 2931 2259 2739 2438
Q 2547 2618 2374 2832
Q 2202 3046 2086 3277
Q 1875 2790 1516 2393
Q 1158 1997 678 1683
Q 646 1664 608 1657
Q 570 1651 544 1683
L 384 1894
Q 365 1920 377 1958
Q 390 1997 422 2016
Q 1184 2483 1568 3193
Q 1952 3904 1939 4781
Q 1939 4883 2016 4883
L 2317 4864
Q 2387 4864 2387 4774
z
M 4710 3622
L 4710 4915
Q 4710 5005 4800 5005
L 5062 5005
Q 5152 5005 5152 4915
L 5152 1536
Q 5152 1446 5062 1446
L 4800 1446
Q 4710 1446 4710 1536
L 4710 3238
L 3398 3238
Q 3315 3238 3315 3315
L 3315 3546
Q 3315 3622 3398 3622
L 4710 3622
z
" transform="scale(0.015625)"/>
     </defs>
     <use xlink:href="#NanumGothic-c5f0"/>
     <use xlink:href="#NanumGothic-b3c4" transform="translate(93.999985 0)"/>
     <use xlink:href="#NanumGothic-bcc4" transform="translate(187.999969 0)"/>
     <use xlink:href="#NanumGothic-20" transform="translate(281.999954 0)"/>
     <use xlink:href="#NanumGothic-c804" transform="translate(309.999939 0)"/>
     <use xlink:href="#NanumGothic-ccb4" transform="translate(403.999924 0)"/>
     <use xlink:href="#NanumGothic-20" transform="translate(497.999908 0)"/>
     <use xlink:href="#NanumGothic-bcf4" transform="translate(525.999893 0)"/>
     <use xlink:href="#NanumGothic-ace0" transform="translate(619.999878 0)"/>
     <use xlink:href="#NanumGothic-c11c" transform="translate(713.999863 0)"/>
     <use xlink:href="#NanumGothic-20" transform="translate(807.999847 0)"/>
     <use xlink:href="#NanumGothic-bd88" transform="translate(835.999832 0)"/>
     <use xlink:href="#NanumGothic-d655" transform="translate(929.999817 0)"/>
     <use xlink:href="#NanumGothic-c2e4" transform="translate(1023.999802 0)"/>
     <use xlink:href="#NanumGothic-c131" transform="translate(1117.999786 0)"/>
    </g>
   </g>
  </g>
 </g>
 <defs>
  <clipPath id="p12ecdc71e3">
   <rect x="61.00625" y="22.224375" width="443.14" height="250.12"/>
  </clipPath>
 </defs>
</svg>
