<?xml version="1.0" encoding="utf-8" standalone="no"?>
<!DOCTYPE svg PUBLIC "-//W3C//DTD SVG 1.1//EN"
  "http://www.w3.org/Graphics/SVG/1.1/DTD/svg11.dtd">
<svg xmlns:xlink="http://www.w3.org/1999/xlink" width="511.083125pt" height="307.834375pt" viewBox="0 0 511.083125 307.834375" xmlns="http://www.w3.org/2000/svg" version="1.1">
 <metadata>
  <rdf:RDF xmlns:dc="http://purl.org/dc/elements/1.1/" xmlns:cc="http://creativecommons.org/ns#" xmlns:rdf="http://www.w3.org/1999/02/22-rdf-syntax-ns#">
   <cc:Work>
    <dc:type rdf:resource="http://purl.org/dc/dcmitype/StillImage"/>
    <dc:date>2026-08-06T10:30:17.561664</dc:date>
    <dc:format>image/svg+xml</dc:format>
    <dc:creator>
     <cc:Agent>
      <dc:title>Matplotlib v3.10.5, https://matplotlib.org/</dc:title>
     </cc:Agent>
    </dc:creator>
   </cc:Work>
  </rdf:RDF>
 </metadata>
 <defs>
  <style type="text/css">*{stroke-linejoin: round; stroke-linecap: butt}</style>
 </defs>
 <g id="figure_1">
  <g id="patch_1">
   <path d="M 0 307.834375 
L 511.083125 307.834375 
L 511.083125 0 
L 0 0 
z
" style="fill: #ffffff"/>
  </g>
  <g id="axes_1">
   <g id="patch_2">
    <path d="M 66.053125 270.278125 
L 503.883125 270.278125 
L 503.883125 22.318125 
L 66.053125 22.318125 
z
" style="fill: #ffffff"/>
   </g>
   <g id="matplotlib.axis_1">
    <g id="xtick_1">
     <g id="line2d_1">
      <defs>
       <path id="m3604bb6a8b" d="M 0 0 
L 0 3.5 
" style="stroke: #000000; stroke-width: 0.8"/>
      </defs>
      <g>
       <use xlink:href="#m3604bb6a8b" x="379.237742" y="270.278125" style="stroke: #000000; stroke-width: 0.8"/>
      </g>
     </g>
     <g id="text_1">
      <!-- 2020 -->
      <g transform="translate(366.512742 284.876562) scale(0.1 -0.1)">
       <defs>
        <path id="DejaVuSans-32" d="M 1228 531 
L 3431 531 
L 3431 0 
L 469 0 
L 469 531 
Q 828 903 1448 1529 
Q 2069 2156 2228 2338 
Q 2531 2678 2651 2914 
Q 2772 3150 2772 3378 
Q 2772 3750 2511 3984 
Q 2250 4219 1831 4219 
Q 1534 4219 1204 4116 
Q 875 4013 500 3803 
L 500 4441 
Q 881 4594 1212 4672 
Q 1544 4750 1819 4750 
Q 2544 4750 2975 4387 
Q 3406 4025 3406 3419 
Q 3406 3131 3298 2873 
Q 3191 2616 2906 2266 
Q 2828 2175 2409 1742 
Q 1991 1309 1228 531 
z
" transform="scale(0.015625)"/>
        <path id="DejaVuSans-30" d="M 2034 4250 
Q 1547 4250 1301 3770 
Q 1056 3291 1056 2328 
Q 1056 1369 1301 889 
Q 1547 409 2034 409 
Q 2525 409 2770 889 
Q 3016 1369 3016 2328 
Q 3016 3291 2770 3770 
Q 2525 4250 2034 4250 
z
M 2034 4750 
Q 2819 4750 3233 4129 
Q 3647 3509 3647 2328 
Q 3647 1150 3233 529 
Q 2819 -91 2034 -91 
Q 1250 -91 836 529 
Q 422 1150 422 2328 
Q 422 3509 836 4129 
Q 1250 4750 2034 4750 
z
" transform="scale(0.015625)"/>
       </defs>
       <use xlink:href="#DejaVuSans-32"/>
       <use xlink:href="#DejaVuSans-30" transform="translate(63.623047 0)"/>
       <use xlink:href="#DejaVuSans-32" transform="translate(127.246094 0)"/>
       <use xlink:href="#DejaVuSans-30" transform="translate(190.869141 0)"/>
      </g>
     </g>
    </g>
    <g id="xtick_2">
     <g id="line2d_2">
      <g>
       <use xlink:href="#m3604bb6a8b" x="400.186546" y="270.278125" style="stroke: #000000; stroke-width: 0.8"/>
      </g>
     </g>
     <g id="text_2">
      <!-- 2021 -->
      <g transform="translate(387.461546 284.876562) scale(0.1 -0.1)">
       <defs>
        <path id="DejaVuSans-31" d="M 794 531 
L 1825 531 
L 1825 4091 
L 703 3866 
L 703 4441 
L 1819 4666 
L 2450 4666 
L 2450 531 
L 3481 531 
L 3481 0 
L 794 0 
L 794 531 
z
" transform="scale(0.015625)"/>
       </defs>
       <use xlink:href="#DejaVuSans-32"/>
       <use xlink:href="#DejaVuSans-30" transform="translate(63.623047 0)"/>
       <use xlink:href="#DejaVuSans-32" transform="translate(127.246094 0)"/>
       <use xlink:href="#DejaVuSans-31" transform="translate(190.869141 0)"/>
      </g>
     </g>
    </g>
    <g id="xtick_3">
     <g id="line2d_3">
      <g>
       <use xlink:href="#m3604bb6a8b" x="421.13535" y="270.278125" style="stroke: #000000; stroke-width: 0.8"/>
      </g>
     </g>
     <g id="text_3">
      <!-- 2022 -->
      <g transform="translate(408.41035 284.876562) scale(0.1 -0.1)">
       <use xlink:href="#DejaVuSans-32"/>
       <use xlink:href="#DejaVuSans-30" transform="translate(63.623047 0)"/>
       <use xlink:href="#DejaVuSans-32" transform="translate(127.246094 0)"/>
       <use xlink:href="#DejaVuSans-32" transform="translate(190.869141 0)"/>
      </g>
     </g>
    </g>
    <g id="xtick_4">
     <g id="line2d_4">
      <g>
       <use xlink:href="#m3604bb6a8b" x="442.084154" y="270.278125" style="stroke: #000000; stroke-width: 0.8"/>
      </g>
     </g>
     <g id="text_4">
      <!-- 2023 -->
      <g transform="translate(429.359154 284.876562) scale(0.1 -0.1)">
       <defs>
        <path id="DejaVuSans-33" d="M 2597 2516 
Q 3050 2419 3304 2112 
Q 3559 1806 3559 1356 
Q 3559 666 3084 287 
Q 2609 -91 1734 -91 
Q 1441 -91 1130 -33 
Q 819 25 488 141 
L 488 750 
Q 750 597 1062 519 
Q 1375 441 1716 441 
Q 2309 441 2620 675 
Q 2931 909 2931 1356 
Q 2931 1769 2642 2001 
Q 2353 2234 1838 2234 
L 1294 2234 
L 1294 2753 
L 1863 2753 
Q 2328 2753 2575 2939 
Q 2822 3125 2822 3475 
Q 2822 3834 2567 4026 
Q 2313 4219 1838 4219 
Q 1578 4219 1281 4162 
Q 984 4106 628 3988 
L 628 4550 
Q 988 4650 1302 4700 
Q 1616 4750 1894 4750 
Q 2613 4750 3031 4423 
Q 3450 4097 3450 3541 
Q 3450 3153 3228 2886 
Q 3006 2619 2597 2516 
z
" transform="scale(0.015625)"/>
       </defs>
       <use xlink:href="#DejaVuSans-32"/>
       <use xlink:href="#DejaVuSans-30" transform="translate(63.623047 0)"/>
       <use xlink:href="#DejaVuSans-32" transform="translate(127.246094 0)"/>
       <use xlink:href="#DejaVuSans-33" transform="translate(190.869141 0)"/>
      </g>
     </g>
    </g>
    <g id="xtick_5">
     <g id="line2d_5">
      <g>
       <use xlink:href="#m3604bb6a8b" x="463.032958" y="270.278125" style="stroke: #000000; stroke-width: 0.8"/>
      </g>
     </g>
     <g id="text_5">
      <!-- 2024 -->
      <g transform="translate(450.307958 284.876562) scale(0.1 -0.1)">
       <defs>
        <path id="DejaVuSans-34" d="M 2419 4116 
L 825 1625 
L 2419 1625 
L 2419 4116 
z
M 2253 4666 
L 3047 4666 
L 3047 1625 
L 3713 1625 
L 3713 1100 
L 3047 1100 
L 3047 0 
L 2419 0 
L 2419 1100 
L 313 1100 
L 313 1709 
L 2253 4666 
z
" transform="scale(0.015625)"/>
       </defs>
       <use xlink:href="#DejaVuSans-32"/>
       <use xlink:href="#DejaVuSans-30" transform="translate(63.623047 0)"/>
       <use xlink:href="#DejaVuSans-32" transform="translate(127.246094 0)"/>
       <use xlink:href="#DejaVuSans-34" transform="translate(190.869141 0)"/>
      </g>
     </g>
    </g>
    <g id="xtick_6">
     <g id="line2d_6">
      <g>
       <use xlink:href="#m3604bb6a8b" x="483.981761" y="270.278125" style="stroke: #000000; stroke-width: 0.8"/>
      </g>
     </g>
     <g id="text_6">
      <!-- 2025 -->
      <g transform="translate(471.256761 284.876562) scale(0.1 -0.1)">
       <defs>
        <path id="DejaVuSans-35" d="M 691 4666 
L 3169 4666 
L 3169 4134 
L 1269 4134 
L 1269 2991 
Q 1406 3038 1543 3061 
Q 1681 3084 1819 3084 
Q 2600 3084 3056 2656 
Q 3513 2228 3513 1497 
Q 3513 744 3044 326 
Q 2575 -91 1722 -91 
Q 1428 -91 1123 -41 
Q 819 9 494 109 
L 494 744 
Q 775 591 1075 516 
Q 1375 441 1709 441 
Q 2250 441 2565 725 
Q 2881 1009 2881 1497 
Q 2881 1984 2565 2268 
Q 2250 2553 1709 2553 
Q 1456 2553 1204 2497 
Q 953 2441 691 2322 
L 691 4666 
z
" transform="scale(0.015625)"/>
       </defs>
       <use xlink:href="#DejaVuSans-32"/>
       <use xlink:href="#DejaVuSans-30" transform="translate(63.623047 0)"/>
       <use xlink:href="#DejaVuSans-32" transform="translate(127.246094 0)"/>
       <use xlink:href="#DejaVuSans-35" transform="translate(190.869141 0)"/>
      </g>
     </g>
    </g>
    <g id="text_7">
     <!-- 보고연도 -->
     <g transform="translate(272.965 298.554687) scale(0.1 -0.1)">
      <defs>
       <path id="DejaVuSans-bcf4" d="M 319 -1131 
L 319 4513 
L 3519 4513 
L 3519 -1131 
L 319 -1131 
z
M 678 -775 
L 3163 -775 
L 3163 4153 
L 678 4153 
L 678 -775 
z
" transform="scale(0.015625)"/>
       <path id="DejaVuSans-ace0" d="M 319 -1131 
L 319 4513 
L 3519 4513 
L 3519 -1131 
L 319 -1131 
z
M 678 -775 
L 3163 -775 
L 3163 4153 
L 678 4153 
L 678 -775 
z
" transform="scale(0.015625)"/>
       <path id="DejaVuSans-c5f0" d="M 319 -1131 
L 319 4513 
L 3519 4513 
L 3519 -1131 
L 319 -1131 
z
M 678 -775 
L 3163 -775 
L 3163 4153 
L 678 4153 
L 678 -775 
z
" transform="scale(0.015625)"/>
       <path id="DejaVuSans-b3c4" d="M 319 -1131 
L 319 4513 
L 3519 4513 
L 3519 -1131 
L 319 -1131 
z
M 678 -775 
L 3163 -775 
L 3163 4153 
L 678 4153 
L 678 -775 
z
" transform="scale(0.015625)"/>
      </defs>
      <use xlink:href="#DejaVuSans-bcf4"/>
      <use xlink:href="#DejaVuSans-ace0" transform="translate(60.009766 0)"/>
      <use xlink:href="#DejaVuSans-c5f0" transform="translate(120.019531 0)"/>
      <use xlink:href="#DejaVuSans-b3c4" transform="translate(180.029297 0)"/>
     </g>
    </g>
   </g>
   <g id="matplotlib.axis_2">
    <g id="ytick_1">
     <g id="line2d_7">
      <path d="M 66.053125 245.311238 
L 503.883125 245.311238 
" clip-path="url(#p20dc861d36)" style="fill: none; stroke: #b0b0b0; stroke-opacity: 0.25; stroke-width: 0.8; stroke-linecap: square"/>
     </g>
     <g id="line2d_8">
      <defs>
       <path id="mb896a66a9e" d="M 0 0 
L -3.5 0 
" style="stroke: #000000; stroke-width: 0.8"/>
      </defs>
      <g>
       <use xlink:href="#mb896a66a9e" x="66.053125" y="245.311238" style="stroke: #000000; stroke-width: 0.8"/>
      </g>
     </g>
     <g id="text_8">
      <!-- 20000 -->
      <g transform="translate(27.240625 249.110457) scale(0.1 -0.1)">
       <use xlink:href="#DejaVuSans-32"/>
       <use xlink:href="#DejaVuSans-30" transform="translate(63.623047 0)"/>
       <use xlink:href="#DejaVuSans-30" transform="translate(127.246094 0)"/>
       <use xlink:href="#DejaVuSans-30" transform="translate(190.869141 0)"/>
       <use xlink:href="#DejaVuSans-30" transform="translate(254.492188 0)"/>
      </g>
     </g>
    </g>
    <g id="ytick_2">
     <g id="line2d_9">
      <path d="M 66.053125 190.940543 
L 503.883125 190.940543 
" clip-path="url(#p20dc861d36)" style="fill: none; stroke: #b0b0b0; stroke-opacity: 0.25; stroke-width: 0.8; stroke-linecap: square"/>
     </g>
     <g id="line2d_10">
      <g>
       <use xlink:href="#mb896a66a9e" x="66.053125" y="190.940543" style="stroke: #000000; stroke-width: 0.8"/>
      </g>
     </g>
     <g id="text_9">
      <!-- 40000 -->
      <g transform="translate(27.240625 194.739762) scale(0.1 -0.1)">
       <use xlink:href="#DejaVuSans-34"/>
       <use xlink:href="#DejaVuSans-30" transform="translate(63.623047 0)"/>
       <use xlink:href="#DejaVuSans-30" transform="translate(127.246094 0)"/>
       <use xlink:href="#DejaVuSans-30" transform="translate(190.869141 0)"/>
       <use xlink:href="#DejaVuSans-30" transform="translate(254.492188 0)"/>
      </g>
     </g>
    </g>
    <g id="ytick_3">
     <g id="line2d_11">
      <path d="M 66.053125 136.569848 
L 503.883125 136.569848 
" clip-path="url(#p20dc861d36)" style="fill: none; stroke: #b0b0b0; stroke-opacity: 0.25; stroke-width: 0.8; stroke-linecap: square"/>
     </g>
     <g id="line2d_12">
      <g>
       <use xlink:href="#mb896a66a9e" x="66.053125" y="136.569848" style="stroke: #000000; stroke-width: 0.8"/>
      </g>
     </g>
     <g id="text_10">
      <!-- 60000 -->
      <g transform="translate(27.240625 140.369067) scale(0.1 -0.1)">
       <defs>
        <path id="DejaVuSans-36" d="M 2113 2584 
Q 1688 2584 1439 2293 
Q 1191 2003 1191 1497 
Q 1191 994 1439 701 
Q 1688 409 2113 409 
Q 2538 409 2786 701 
Q 3034 994 3034 1497 
Q 3034 2003 2786 2293 
Q 2538 2584 2113 2584 
z
M 3366 4563 
L 3366 3988 
Q 3128 4100 2886 4159 
Q 2644 4219 2406 4219 
Q 1781 4219 1451 3797 
Q 1122 3375 1075 2522 
Q 1259 2794 1537 2939 
Q 1816 3084 2150 3084 
Q 2853 3084 3261 2657 
Q 3669 2231 3669 1497 
Q 3669 778 3244 343 
Q 2819 -91 2113 -91 
Q 1303 -91 875 529 
Q 447 1150 447 2328 
Q 447 3434 972 4092 
Q 1497 4750 2381 4750 
Q 2619 4750 2861 4703 
Q 3103 4656 3366 4563 
z
" transform="scale(0.015625)"/>
       </defs>
       <use xlink:href="#DejaVuSans-36"/>
       <use xlink:href="#DejaVuSans-30" transform="translate(63.623047 0)"/>
       <use xlink:href="#DejaVuSans-30" transform="translate(127.246094 0)"/>
       <use xlink:href="#DejaVuSans-30" transform="translate(190.869141 0)"/>
       <use xlink:href="#DejaVuSans-30" transform="translate(254.492188 0)"/>
      </g>
     </g>
    </g>
    <g id="ytick_4">
     <g id="line2d_13">
      <path d="M 66.053125 82.199154 
L 503.883125 82.199154 
" clip-path="url(#p20dc861d36)" style="fill: none; stroke: #b0b0b0; stroke-opacity: 0.25; stroke-width: 0.8; stroke-linecap: square"/>
     </g>
     <g id="line2d_14">
      <g>
       <use xlink:href="#mb896a66a9e" x="66.053125" y="82.199154" style="stroke: #000000; stroke-width: 0.8"/>
      </g>
     </g>
     <g id="text_11">
      <!-- 80000 -->
      <g transform="translate(27.240625 85.998372) scale(0.1 -0.1)">
       <defs>
        <path id="DejaVuSans-38" d="M 2034 2216 
Q 1584 2216 1326 1975 
Q 1069 1734 1069 1313 
Q 1069 891 1326 650 
Q 1584 409 2034 409 
Q 2484 409 2743 651 
Q 3003 894 3003 1313 
Q 3003 1734 2745 1975 
Q 2488 2216 2034 2216 
z
M 1403 2484 
Q 997 2584 770 2862 
Q 544 3141 544 3541 
Q 544 4100 942 4425 
Q 1341 4750 2034 4750 
Q 2731 4750 3128 4425 
Q 3525 4100 3525 3541 
Q 3525 3141 3298 2862 
Q 3072 2584 2669 2484 
Q 3125 2378 3379 2068 
Q 3634 1759 3634 1313 
Q 3634 634 3220 271 
Q 2806 -91 2034 -91 
Q 1263 -91 848 271 
Q 434 634 434 1313 
Q 434 1759 690 2068 
Q 947 2378 1403 2484 
z
M 1172 3481 
Q 1172 3119 1398 2916 
Q 1625 2713 2034 2713 
Q 2441 2713 2670 2916 
Q 2900 3119 2900 3481 
Q 2900 3844 2670 4047 
Q 2441 4250 2034 4250 
Q 1625 4250 1398 4047 
Q 1172 3844 1172 3481 
z
" transform="scale(0.015625)"/>
       </defs>
       <use xlink:href="#DejaVuSans-38"/>
       <use xlink:href="#DejaVuSans-30" transform="translate(63.623047 0)"/>
       <use xlink:href="#DejaVuSans-30" transform="translate(127.246094 0)"/>
       <use xlink:href="#DejaVuSans-30" transform="translate(190.869141 0)"/>
       <use xlink:href="#DejaVuSans-30" transform="translate(254.492188 0)"/>
      </g>
     </g>
    </g>
    <g id="ytick_5">
     <g id="line2d_15">
      <path d="M 66.053125 27.828459 
L 503.883125 27.828459 
" clip-path="url(#p20dc861d36)" style="fill: none; stroke: #b0b0b0; stroke-opacity: 0.25; stroke-width: 0.8; stroke-linecap: square"/>
     </g>
     <g id="line2d_16">
      <g>
       <use xlink:href="#mb896a66a9e" x="66.053125" y="27.828459" style="stroke: #000000; stroke-width: 0.8"/>
      </g>
     </g>
     <g id="text_12">
      <!-- 100000 -->
      <g transform="translate(20.878125 31.627678) scale(0.1 -0.1)">
       <use xlink:href="#DejaVuSans-31"/>
       <use xlink:href="#DejaVuSans-30" transform="translate(63.623047 0)"/>
       <use xlink:href="#DejaVuSans-30" transform="translate(127.246094 0)"/>
       <use xlink:href="#DejaVuSans-30" transform="translate(190.869141 0)"/>
       <use xlink:href="#DejaVuSans-30" transform="translate(254.492188 0)"/>
       <use xlink:href="#DejaVuSans-30" transform="translate(318.115234 0)"/>
      </g>
     </g>
    </g>
    <g id="text_13">
     <!-- 보고서 길이 -->
     <g transform="translate(14.798438 162.891094) rotate(-90) scale(0.1 -0.1)">
      <defs>
       <path id="DejaVuSans-c11c" d="M 319 -1131 
L 319 4513 
L 3519 4513 
L 3519 -1131 
L 319 -1131 
z
M 678 -775 
L 3163 -775 
L 3163 4153 
L 678 4153 
L 678 -775 
z
" transform="scale(0.015625)"/>
       <path id="DejaVuSans-20" transform="scale(0.015625)"/>
       <path id="DejaVuSans-ae38" d="M 319 -1131 
L 319 4513 
L 3519 4513 
L 3519 -1131 
L 319 -1131 
z
M 678 -775 
L 3163 -775 
L 3163 4153 
L 678 4153 
L 678 -775 
z
" transform="scale(0.015625)"/>
       <path id="DejaVuSans-c774" d="M 319 -1131 
L 319 4513 
L 3519 4513 
L 3519 -1131 
L 319 -1131 
z
M 678 -775 
L 3163 -775 
L 3163 4153 
L 678 4153 
L 678 -775 
z
" transform="scale(0.015625)"/>
      </defs>
      <use xlink:href="#DejaVuSans-bcf4"/>
      <use xlink:href="#DejaVuSans-ace0" transform="translate(60.009766 0)"/>
      <use xlink:href="#DejaVuSans-c11c" transform="translate(120.019531 0)"/>
      <use xlink:href="#DejaVuSans-20" transform="translate(180.029297 0)"/>
      <use xlink:href="#DejaVuSans-ae38" transform="translate(211.816406 0)"/>
      <use xlink:href="#DejaVuSans-c774" transform="translate(271.826172 0)"/>
     </g>
    </g>
   </g>
   <g id="line2d_17">
    <path d="M 85.954489 215.951289 
L 106.903292 188.959411 
L 127.852096 172.962174 
L 148.8009 167.793078 
L 169.749704 166.372239 
L 190.698508 152.872014 
L 211.647312 148.767183 
L 232.596115 159.016963 
L 253.544919 158.291793 
L 274.493723 160.971741 
L 295.442527 163.513235 
L 316.391331 159.551881 
L 337.340135 159.126644 
L 358.288938 160.222849 
L 379.237742 145.156202 
L 400.186546 146.738374 
L 421.13535 142.969762 
L 442.084154 155.999109 
L 463.032958 165.418114 
L 483.981761 152.529856 
" clip-path="url(#p20dc861d36)" style="fill: none; stroke: #1f77b4; stroke-width: 1.5; stroke-linecap: square"/>
    <defs>
     <path id="m9321484ae6" d="M 0 3 
C 0.795609 3 1.55874 2.683901 2.12132 2.12132 
C 2.683901 1.55874 3 0.795609 3 0 
C 3 -0.795609 2.683901 -1.55874 2.12132 -2.12132 
C 1.55874 -2.683901 0.795609 -3 0 -3 
C -0.795609 -3 -1.55874 -2.683901 -2.12132 -2.12132 
C -2.683901 -1.55874 -3 -0.795609 -3 0 
C -3 0.795609 -2.683901 1.55874 -2.12132 2.12132 
C -1.55874 2.683901 -0.795609 3 0 3 
z
" style="stroke: #1f77b4"/>
    </defs>
    <g clip-path="url(#p20dc861d36)">
     <use xlink:href="#m9321484ae6" x="85.954489" y="215.951289" style="fill: #1f77b4; stroke: #1f77b4"/>
     <use xlink:href="#m9321484ae6" x="106.903292" y="188.959411" style="fill: #1f77b4; stroke: #1f77b4"/>
     <use xlink:href="#m9321484ae6" x="127.852096" y="172.962174" style="fill: #1f77b4; stroke: #1f77b4"/>
     <use xlink:href="#m9321484ae6" x="148.8009" y="167.793078" style="fill: #1f77b4; stroke: #1f77b4"/>
     <use xlink:href="#m9321484ae6" x="169.749704" y="166.372239" style="fill: #1f77b4; stroke: #1f77b4"/>
     <use xlink:href="#m9321484ae6" x="190.698508" y="152.872014" style="fill: #1f77b4; stroke: #1f77b4"/>
     <use xlink:href="#m9321484ae6" x="211.647312" y="148.767183" style="fill: #1f77b4; stroke: #1f77b4"/>
     <use xlink:href="#m9321484ae6" x="232.596115" y="159.016963" style="fill: #1f77b4; stroke: #1f77b4"/>
     <use xlink:href="#m9321484ae6" x="253.544919" y="158.291793" style="fill: #1f77b4; stroke: #1f77b4"/>
     <use xlink:href="#m9321484ae6" x="274.493723" y="160.971741" style="fill: #1f77b4; stroke: #1f77b4"/>
     <use xlink:href="#m9321484ae6" x="295.442527" y="163.513235" style="fill: #1f77b4; stroke: #1f77b4"/>
     <use xlink:href="#m9321484ae6" x="316.391331" y="159.551881" style="fill: #1f77b4; stroke: #1f77b4"/>
     <use xlink:href="#m9321484ae6" x="337.340135" y="159.126644" style="fill: #1f77b4; stroke: #1f77b4"/>
     <use xlink:href="#m9321484ae6" x="358.288938" y="160.222849" style="fill: #1f77b4; stroke: #1f77b4"/>
     <use xlink:href="#m9321484ae6" x="379.237742" y="145.156202" style="fill: #1f77b4; stroke: #1f77b4"/>
     <use xlink:href="#m9321484ae6" x="400.186546" y="146.738374" style="fill: #1f77b4; stroke: #1f77b4"/>
     <use xlink:href="#m9321484ae6" x="421.13535" y="142.969762" style="fill: #1f77b4; stroke: #1f77b4"/>
     <use xlink:href="#m9321484ae6" x="442.084154" y="155.999109" style="fill: #1f77b4; stroke: #1f77b4"/>
     <use xlink:href="#m9321484ae6" x="463.032958" y="165.418114" style="fill: #1f77b4; stroke: #1f77b4"/>
     <use xlink:href="#m9321484ae6" x="483.981761" y="152.529856" style="fill: #1f77b4; stroke: #1f77b4"/>
    </g>
   </g>
   <g id="line2d_18">
    <path d="M 148.8009 255.750411 
L 169.749704 259.007216 
L 190.698508 232.421305 
L 211.647312 173.816493 
L 232.596115 33.589034 
L 253.544919 200.447259 
L 274.493723 182.625905 
L 295.442527 183.001878 
L 316.391331 169.629537 
L 337.340135 160.610233 
L 358.288938 158.650721 
L 379.237742 133.720647 
L 400.186546 140.589938 
L 421.13535 140.181381 
L 442.084154 134.908766 
L 463.032958 136.446537 
L 483.981761 138.74973 
" clip-path="url(#p20dc861d36)" style="fill: none; stroke: #ff7f0e; stroke-width: 1.5; stroke-linecap: square"/>
    <defs>
     <path id="m23bfb8f459" d="M 0 3 
C 0.795609 3 1.55874 2.683901 2.12132 2.12132 
C 2.683901 1.55874 3 0.795609 3 0 
C 3 -0.795609 2.683901 -1.55874 2.12132 -2.12132 
C 1.55874 -2.683901 0.795609 -3 0 -3 
C -0.795609 -3 -1.55874 -2.683901 -2.12132 -2.12132 
C -2.683901 -1.55874 -3 -0.795609 -3 0 
C -3 0.795609 -2.683901 1.55874 -2.12132 2.12132 
C -1.55874 2.683901 -0.795609 3 0 3 
z
" style="stroke: #ff7f0e"/>
    </defs>
    <g clip-path="url(#p20dc861d36)">
     <use xlink:href="#m23bfb8f459" x="148.8009" y="255.750411" style="fill: #ff7f0e; stroke: #ff7f0e"/>
     <use xlink:href="#m23bfb8f459" x="169.749704" y="259.007216" style="fill: #ff7f0e; stroke: #ff7f0e"/>
     <use xlink:href="#m23bfb8f459" x="190.698508" y="232.421305" style="fill: #ff7f0e; stroke: #ff7f0e"/>
     <use xlink:href="#m23bfb8f459" x="211.647312" y="173.816493" style="fill: #ff7f0e; stroke: #ff7f0e"/>
     <use xlink:href="#m23bfb8f459" x="232.596115" y="33.589034" style="fill: #ff7f0e; stroke: #ff7f0e"/>
     <use xlink:href="#m23bfb8f459" x="253.544919" y="200.447259" style="fill: #ff7f0e; stroke: #ff7f0e"/>
     <use xlink:href="#m23bfb8f459" x="274.493723" y="182.625905" style="fill: #ff7f0e; stroke: #ff7f0e"/>
     <use xlink:href="#m23bfb8f459" x="295.442527" y="183.001878" style="fill: #ff7f0e; stroke: #ff7f0e"/>
     <use xlink:href="#m23bfb8f459" x="316.391331" y="169.629537" style="fill: #ff7f0e; stroke: #ff7f0e"/>
     <use xlink:href="#m23bfb8f459" x="337.340135" y="160.610233" style="fill: #ff7f0e; stroke: #ff7f0e"/>
     <use xlink:href="#m23bfb8f459" x="358.288938" y="158.650721" style="fill: #ff7f0e; stroke: #ff7f0e"/>
     <use xlink:href="#m23bfb8f459" x="379.237742" y="133.720647" style="fill: #ff7f0e; stroke: #ff7f0e"/>
     <use xlink:href="#m23bfb8f459" x="400.186546" y="140.589938" style="fill: #ff7f0e; stroke: #ff7f0e"/>
     <use xlink:href="#m23bfb8f459" x="421.13535" y="140.181381" style="fill: #ff7f0e; stroke: #ff7f0e"/>
     <use xlink:href="#m23bfb8f459" x="442.084154" y="134.908766" style="fill: #ff7f0e; stroke: #ff7f0e"/>
     <use xlink:href="#m23bfb8f459" x="463.032958" y="136.446537" style="fill: #ff7f0e; stroke: #ff7f0e"/>
     <use xlink:href="#m23bfb8f459" x="483.981761" y="138.74973" style="fill: #ff7f0e; stroke: #ff7f0e"/>
    </g>
   </g>
   <g id="patch_3">
    <path d="M 66.053125 270.278125 
L 66.053125 22.318125 
" style="fill: none; stroke: #000000; stroke-width: 0.8; stroke-linejoin: miter; stroke-linecap: square"/>
   </g>
   <g id="patch_4">
    <path d="M 503.883125 270.278125 
L 503.883125 22.318125 
" style="fill: none; stroke: #000000; stroke-width: 0.8; stroke-linejoin: miter; stroke-linecap: square"/>
   </g>
   <g id="patch_5">
    <path d="M 66.053125 270.278125 
L 503.883125 270.278125 
" style="fill: none; stroke: #000000; stroke-width: 0.8; stroke-linejoin: miter; stroke-linecap: square"/>
   </g>
   <g id="patch_6">
    <path d="M 66.053125 22.318125 
L 503.883125 22.318125 
" style="fill: none; stroke: #000000; stroke-width: 0.8; stroke-linejoin: miter; stroke-linecap: square"/>
   </g>
   <g id="text_14">
    <!-- AI 공시 여부별 연도별 보고서 길이 -->
    <g transform="translate(222.747187 16.318125) scale(0.12 -0.12)">
     <defs>
      <path id="DejaVuSans-41" d="M 2188 4044 
L 1331 1722 
L 3047 1722 
L 2188 4044 
z
M 1831 4666 
L 2547 4666 
L 4325 0 
L 3669 0 
L 3244 1197 
L 1141 1197 
L 716 0 
L 50 0 
L 1831 4666 
z
" transform="scale(0.015625)"/>
      <path id="DejaVuSans-49" d="M 628 4666 
L 1259 4666 
L 1259 0 
L 628 0 
L 628 4666 
z
" transform="scale(0.015625)"/>
      <path id="DejaVuSans-acf5" d="M 319 -1131 
L 319 4513 
L 3519 4513 
L 3519 -1131 
L 319 -1131 
z
M 678 -775 
L 3163 -775 
L 3163 4153 
L 678 4153 
L 678 -775 
z
" transform="scale(0.015625)"/>
      <path id="DejaVuSans-c2dc" d="M 319 -1131 
L 319 4513 
L 3519 4513 
L 3519 -1131 
L 319 -1131 
z
M 678 -775 
L 3163 -775 
L 3163 4153 
L 678 4153 
L 678 -775 
z
" transform="scale(0.015625)"/>
      <path id="DejaVuSans-c5ec" d="M 319 -1131 
L 319 4513 
L 3519 4513 
L 3519 -1131 
L 319 -1131 
z
M 678 -775 
L 3163 -775 
L 3163 4153 
L 678 4153 
L 678 -775 
z
" transform="scale(0.015625)"/>
      <path id="DejaVuSans-bd80" d="M 319 -1131 
L 319 4513 
L 3519 4513 
L 3519 -1131 
L 319 -1131 
z
M 678 -775 
L 3163 -775 
L 3163 4153 
L 678 4153 
L 678 -775 
z
" transform="scale(0.015625)"/>
      <path id="DejaVuSans-bcc4" d="M 319 -1131 
L 319 4513 
L 3519 4513 
L 3519 -1131 
L 319 -1131 
z
M 678 -775 
L 3163 -775 
L 3163 4153 
L 678 4153 
L 678 -775 
z
" transform="scale(0.015625)"/>
     </defs>
     <use xlink:href="#DejaVuSans-41"/>
     <use xlink:href="#DejaVuSans-49" transform="translate(68.408203 0)"/>
     <use xlink:href="#DejaVuSans-20" transform="translate(97.900391 0)"/>
     <use xlink:href="#DejaVuSans-acf5" transform="translate(129.6875 0)"/>
     <use xlink:href="#DejaVuSans-c2dc" transform="translate(189.697266 0)"/>
     <use xlink:href="#DejaVuSans-20" transform="translate(249.707031 0)"/>
     <use xlink:href="#DejaVuSans-c5ec" transform="translate(281.494141 0)"/>
     <use xlink:href="#DejaVuSans-bd80" transform="translate(341.503906 0)"/>
     <use xlink:href="#DejaVuSans-bcc4" transform="translate(401.513672 0)"/>
     <use xlink:href="#DejaVuSans-20" transform="translate(461.523438 0)"/>
     <use xlink:href="#DejaVuSans-c5f0" transform="translate(493.310547 0)"/>
     <use xlink:href="#DejaVuSans-b3c4" transform="translate(553.320312 0)"/>
     <use xlink:href="#DejaVuSans-bcc4" transform="translate(613.330078 0)"/>
     <use xlink:href="#DejaVuSans-20" transform="translate(673.339844 0)"/>
     <use xlink:href="#DejaVuSans-bcf4" transform="translate(705.126953 0)"/>
     <use xlink:href="#DejaVuSans-ace0" transform="translate(765.136719 0)"/>
     <use xlink:href="#DejaVuSans-c11c" transform="translate(825.146484 0)"/>
     <use xlink:href="#DejaVuSans-20" transform="translate(885.15625 0)"/>
     <use xlink:href="#DejaVuSans-ae38" transform="translate(916.943359 0)"/>
     <use xlink:href="#DejaVuSans-c774" transform="translate(976.953125 0)"/>
    </g>
   </g>
   <g id="legend_1">
    <g id="line2d_19">
     <path d="M 435.909688 35.416562 
L 445.909688 35.416562 
L 455.909688 35.416562 
" style="fill: none; stroke: #1f77b4; stroke-width: 1.5; stroke-linecap: square"/>
     <g>
      <use xlink:href="#m9321484ae6" x="445.909688" y="35.416562" style="fill: #1f77b4; stroke: #1f77b4"/>
     </g>
    </g>
    <g id="text_15">
     <!-- AI 미공시 -->
     <g transform="translate(463.909688 38.916562) scale(0.1 -0.1)">
      <defs>
       <path id="DejaVuSans-bbf8" d="M 319 -1131 
L 319 4513 
L 3519 4513 
L 3519 -1131 
L 319 -1131 
z
M 678 -775 
L 3163 -775 
L 3163 4153 
L 678 4153 
L 678 -775 
z
" transform="scale(0.015625)"/>
      </defs>
      <use xlink:href="#DejaVuSans-41"/>
      <use xlink:href="#DejaVuSans-49" transform="translate(68.408203 0)"/>
      <use xlink:href="#DejaVuSans-20" transform="translate(97.900391 0)"/>
      <use xlink:href="#DejaVuSans-bbf8" transform="translate(129.6875 0)"/>
      <use xlink:href="#DejaVuSans-acf5" transform="translate(189.697266 0)"/>
      <use xlink:href="#DejaVuSans-c2dc" transform="translate(249.707031 0)"/>
     </g>
    </g>
    <g id="line2d_20">
     <path d="M 435.909688 50.094687 
L 445.909688 50.094687 
L 455.909688 50.094687 
" style="fill: none; stroke: #ff7f0e; stroke-width: 1.5; stroke-linecap: square"/>
     <g>
      <use xlink:href="#m23bfb8f459" x="445.909688" y="50.094687" style="fill: #ff7f0e; stroke: #ff7f0e"/>
     </g>
    </g>
    <g id="text_16">
     <!-- AI 공시 -->
     <g transform="translate(463.909688 53.594687) scale(0.1 -0.1)">
      <use xlink:href="#DejaVuSans-41"/>
      <use xlink:href="#DejaVuSans-49" transform="translate(68.408203 0)"/>
      <use xlink:href="#DejaVuSans-20" transform="translate(97.900391 0)"/>
      <use xlink:href="#DejaVuSans-acf5" transform="translate(129.6875 0)"/>
      <use xlink:href="#DejaVuSans-c2dc" transform="translate(189.697266 0)"/>
     </g>
    </g>
   </g>
  </g>
 </g>
 <defs>
  <clipPath id="p20dc861d36">
   <rect x="66.053125" y="22.318125" width="437.83" height="247.96"/>
  </clipPath>
 </defs>
</svg>
